<svg width="91" height="38" fill="none" xmlns="http://www.w3.org/2000/svg"><path d="M6.395 14.825c0-.985.81-1.364 2.15-1.364 1.92 0 4.347.581 6.268 1.617V9.143c-2.098-.833-4.171-1.161-6.269-1.161C3.412 7.982 0 10.658 0 15.128c0 6.97 9.605 5.859 9.605 8.864 0 1.161-1.01 1.54-2.426 1.54-2.098 0-4.778-.858-6.901-2.02v6.01a17.537 17.537 0 006.9 1.44c5.259 0 8.873-2.601 8.873-7.122-.025-7.525-9.656-6.187-9.656-9.015zM23.483 2.931l-6.168 1.313-.025 20.227c0 3.738 2.806 6.49 6.547 6.49 2.073 0 3.59-.378 4.424-.833v-5.126c-.81.328-4.803 1.49-4.803-2.248V13.79h4.803V8.41h-4.803l.025-5.48zm12.639 7.349l-.404-1.869h-5.46v22.096h6.319V15.532c1.491-1.944 4.02-1.59 4.803-1.313V8.411c-.81-.303-3.767-.859-5.258 1.869zm6.8-1.869h6.344v22.096h-6.344V8.41zm0-1.92l6.344-1.363V.002L42.922 1.34v5.152zm19.54 1.49c-2.478 0-4.07 1.162-4.955 1.97l-.329-1.565h-5.56V37.83l6.319-1.338.025-7.147c.91.657 2.25 1.591 4.474 1.591 4.525 0 8.645-3.636 8.645-11.641-.025-7.324-4.196-11.313-8.62-11.313zm-1.517 17.4c-1.492 0-2.377-.53-2.983-1.187l-.025-9.369c.657-.732 1.567-1.237 3.008-1.237 2.3 0 3.893 2.575 3.893 5.883 0 3.384-1.568 5.91-3.893 5.91zM91 19.547c0-6.464-3.135-11.565-9.125-11.565-6.016 0-9.656 5.1-9.656 11.515 0 7.6 4.297 11.44 10.465 11.44 3.008 0 5.283-.683 7.002-1.642v-5.05c-1.72.858-3.691 1.388-6.194 1.388-2.452 0-4.625-.858-4.903-3.838h12.36c0-.329.051-1.642.051-2.248zm-12.487-2.399c0-2.853 1.744-4.04 3.337-4.04 1.541 0 3.184 1.187 3.184 4.04h-6.521z" fill="#6772E5"/></svg>