<svg width="465" height="328" fill="none" xmlns="http://www.w3.org/2000/svg"><path d="M465 280.652H0v.262h465v-.262zm-25.605 9.982h-33.149v.262h33.149v-.262zm-120.288-2.842h-35.081v.262h35.081v-.262zm129.864 12.582H383.42v.262h65.551v-.262zm-406.696-1.762H22.083v.262h20.192v-.262zm41.159 0H51.63v.262h31.804v-.262zm139.913-4.424h-57.288v.262h57.288v-.262z" fill="#BEB9CD"/><path d="M229.501 328c112.436 0 203.584-5.314 203.584-11.869s-91.148-11.868-203.584-11.868c-112.437 0-203.585 5.313-203.585 11.868 0 6.555 91.148 11.869 203.585 11.869z" fill="#F5F4F8"/><path d="M131.711 32.67c-8.463 8.503 5.922 21.703-3.58 27.763 7.759 3.89 34.954 8.828 42-6.47-5.135-3.983-1.565-13.776-6.3-23.18-7.088-13.945-40.583-7.77-32.12 1.887z" fill="#18113C"/><path d="M132.478 32.45c-2.635-.44-11.55 3.984-4.914 15.863 5.345 9.604.893 10.285.893 10.285s5.25.147 2.1-6.993c-3.339-7.622-4.904-15.528 1.921-19.155z" fill="#18113C"/><path d="M194.9 107.875a2.584 2.584 0 00-3.465-1.048l-.619.325c-.2.105-.578.357-.882.535a16.314 16.314 0 01-3.045 1.405 12.917 12.917 0 01-4.043.765 11.09 11.09 0 01-3.727-.598 13.39 13.39 0 01-2.195-1.048c-.903-1.992-1.764-4.005-2.499-6.081a93.684 93.684 0 01-2.373-7.402 104.87 104.87 0 01-1.806-7.591 98.161 98.161 0 01-.703-3.816l-.284-1.898a43.84 43.84 0 01-.231-1.783v-.21a5.265 5.265 0 00-1.909-3.553 5.28 5.28 0 00-7.424.742 5.265 5.265 0 00-1.167 3.86c.074.891.137 1.573.231 2.317.095.745.2 1.458.305 2.181.231 1.447.493 2.873.787 4.299a80.625 80.625 0 002.205 8.388c.41 1.383.914 2.746 1.386 4.12.473 1.373 1.05 2.715 1.649 4.047a75.921 75.921 0 003.895 7.853l.126.231a4.084 4.084 0 001.628 1.614 21.288 21.288 0 006.352 2.244c2.284.403 4.624.353 6.888-.147a18.176 18.176 0 008.495-4.603c.388-.356.756-.723 1.05-1.111.294-.388.651-.755 1.05-1.3a2.57 2.57 0 00.325-2.737z" fill="#FF8B7B"/><path d="M201.883 98.062h-.305a6.552 6.552 0 00-5.25 2.453l-5.071 6.354v4.341c4.074 1.614 9.24-2.737 9.24-2.737l2.614-.66a3.659 3.659 0 002.741-4.068l-.378-2.548a3.657 3.657 0 00-3.591-3.135z" fill="#FF8B7B"/><path d="M168.892 73.56c3.392 3.48 3.602 13.87 3.602 13.87l-13.566 10.904s-5.576-15.412-2.489-20.853c2.615-4.614 8.127-8.357 12.453-3.922z" fill="#754FFE"/><path opacity=".2" d="M168.892 73.56c3.392 3.48 3.602 13.87 3.602 13.87l-13.566 10.904s-5.576-15.412-2.489-20.853c2.615-4.614 8.127-8.357 12.453-3.922z" fill="#fff"/><path d="M146.443 307.146l7.497.817 1.029-20.34-7.497-.828-1.029 20.351z" fill="#FF8B7B"/><path d="M155.168 303.078h-8.809a.686.686 0 00-.704.64l-.588 8.314a1.67 1.67 0 001.628 1.667H167.6c3.843 0 3.854-3.889 2.195-4.246-7.466-1.573-10.374-3.753-13.01-5.829a2.626 2.626 0 00-1.617-.546z" fill="#18113C"/><path opacity=".2" d="M154.969 287.634l-.535 10.485h-7.539l.577-11.313 7.497.828z" fill="#000"/><path d="M159.011 125.343s6.489 54.237 6.489 78.352c-5.113 33.551-9.45 92.432-9.45 92.432l-10.374-.273s-4.714-64.123-.346-91.813c-5.597-24.807-12.506-82.053-12.506-82.053l26.187 3.355z" fill="#18113C"/><path opacity=".2" d="M139.009 140.44a31.097 31.097 0 00-3.591 1.867c1.428 10.704 3.307 24.177 5.302 36.612 3.402-10.233 1.565-32.733-1.711-38.479z" fill="#000"/><path d="M65.257 288.263l6.184 4.309L82.11 275.21l-6.184-4.31-10.668 17.363z" fill="#FF8B7B"/><path d="M73.006 290.297l-5.25-7.056a.674.674 0 00-.924-.178l-7.035 4.508a1.656 1.656 0 00-.368 2.296c2.195 2.988 2.237 3.009 4.998 6.721 1.712 2.275 5.124 6.857 7.476 10.013 2.352 3.156 5.429.765 4.715-.787-3.15-6.909-3.15-10.484-3.087-13.881a2.661 2.661 0 00-.525-1.636z" fill="#18113C"/><path opacity=".2" d="M82.098 275.21l-5.491 8.953-6.626-3.606 5.943-9.657 6.174 4.31z" fill="#000"/><path d="M103.193 295.539c-5.365 0-16.537 0-16.726-7.884-.147-6.186 7.518-8.755 14.133-9.069a5.587 5.587 0 015.321 3.192c.313.663.492 1.381.527 2.113v.419c7.497-.356 12.348-1.992 14.123-4.781 4-6.291-3.665-22.531-11.067-38.227-8.715-18.463-18.585-39.38-18.774-59.416a5.568 5.568 0 011.599-3.959 5.592 5.592 0 013.934-1.671 5.603 5.603 0 013.929 1.618 5.583 5.583 0 011.657 3.907c.168 17.593 9.45 37.336 17.703 54.761 9.45 20.11 17.693 37.483 10.395 48.963-4.231 6.753-12.999 10.034-26.754 10.034z" fill="#754FFE"/><path d="M150.706 124.274s-17.913 61.985-26.66 84.464c-16.947 29.42-45.066 74.44-45.066 74.44l-8.977-5.242s21-52.004 35.122-76.223c3.791-25.163 18.123-81.004 18.123-81.004l27.458 3.565z" fill="#18113C"/><path d="M74.623 295.361a2.989 2.989 0 001.553 1.269 1.048 1.048 0 001.05-.346.734.734 0 00.231-.639c-.125-1.259-3.38-2.894-4.031-3.209a.174.174 0 00-.12-.003.17.17 0 00-.09.077.24.24 0 000 .262c.385.906.856 1.773 1.407 2.589zm2.236 0a.872.872 0 01.178.399.247.247 0 01-.084.22.732.732 0 01-.693.231c-.693-.137-1.606-1.258-2.488-3.03a11.053 11.053 0 013.087 2.139v.041z" fill="#754FFE"/><path d="M73.164 292.814l.063.052c1.05.577 3.78 1.048 4.378.178a.911.911 0 00-.052-1.048c-1.05-1.856-4.2.325-4.337.419a.25.25 0 00-.094.21.349.349 0 00.042.189zm3.99-.609c.03.037.059.075.084.116.115.199.136.346.073.43-.346.503-2.362.325-3.538-.137.787-.471 2.625-1.426 3.38-.409zm83.097 12.603a3.045 3.045 0 001.953-.493 1.043 1.043 0 00.325-1.049.786.786 0 00-.378-.576c-1.05-.64-4.336.985-4.977 1.321a.174.174 0 00-.079.09.174.174 0 00-.005.119.28.28 0 00.078.114.268.268 0 00.122.065c.97.237 1.962.374 2.961.409zm1.302-1.814a.794.794 0 01.43.094c.053 0 .105.073.126.199a.704.704 0 01-.231.692c-.514.472-1.963.535-3.916.189a10.93 10.93 0 013.538-1.174h.053z" fill="#754FFE"/><path d="M157.29 304.452h.073c1.05-.482 3.098-2.401 2.762-3.397a.913.913 0 00-.84-.556c-2.1-.241-2.247 3.555-2.258 3.712a.253.253 0 00.116.21.25.25 0 00.147.031zm1.89-3.565h.147c.22 0 .357.095.388.199.2.577-1.144 2.097-2.226 2.758.095-.912.431-2.957 1.712-2.957h-.021zm-35.932-180.126l35.763 4.571c8.064-27.113 10.721-40.208 11.435-46.51a6.836 6.836 0 00-1.049-4.523 6.854 6.854 0 00-3.697-2.816c-2.1-.67-4.809-1.467-7.497-2.097a88.263 88.263 0 00-2.762-.67 114.69 114.69 0 00-16.233-2.097 61.988 61.988 0 00-2.415-.158 87.017 87.017 0 00-4.578-.105 7.723 7.723 0 00-7.319 5.234 7.689 7.689 0 00-.377 3.154c.283 3.145.504 6.07.672 8.755.399 6.29.525 11.323.43 15.727a135.462 135.462 0 01-2.373 21.535z" fill="#754FFE"/><path opacity=".3" d="M123.248 120.761l35.763 4.571c8.064-27.113 10.721-40.208 11.435-46.51a6.836 6.836 0 00-1.049-4.523 6.854 6.854 0 00-3.697-2.816c-2.1-.67-4.809-1.467-7.497-2.097a88.263 88.263 0 00-2.762-.67 114.69 114.69 0 00-16.233-2.097 61.988 61.988 0 00-2.415-.158 87.017 87.017 0 00-4.578-.105 7.723 7.723 0 00-7.319 5.234 7.689 7.689 0 00-.377 3.154c.283 3.145.504 6.07.672 8.755.399 6.29.525 11.323.43 15.727a135.462 135.462 0 01-2.373 21.535z" fill="#fff"/><path opacity=".3" d="M125.6 99.184c4.725-6.102 6.437-13.085 4.904-16.933l-5.334 1.195c.43 6.27.546 11.324.43 15.738z" fill="#754FFE"/><path d="M158.202 69.323a96.41 96.41 0 00-2.761-.67 116.318 116.318 0 00-16.244-2.098 95.013 95.013 0 00-2.404-.146l-1.397-.063 1.05 1.834c.147.252 3.717 6.082 12.6 12.351l1.901 1.321 1.827-1.394a13.765 13.765 0 005.754-11.04l-.326-.095z" fill="#fff"/><path d="M143.146 55.778c-.336 4.414-1.375 8.912-3.948 10.799 0 0 3.276 5.442 11.76 11.386 5.313-4.057 4.484-9.31 4.484-9.31-5.649-2.097-5.25-6.008-2.867-12.246l-4.41-2.37a2.887 2.887 0 00-5.019 1.74z" fill="#FF8B7B"/><path opacity=".2" d="M148.165 54.037a2.892 2.892 0 00-4.24-.044 2.883 2.883 0 00-.727 1.386 17.835 17.835 0 007.718 7.874 19.053 19.053 0 011.648-6.846l-4.399-2.37z" fill="#000"/><path d="M136.279 41.938c2.194 8.524 2.94 12.173 8.158 15.727 7.844 5.39 17.85.839 18.239-8.157.367-8.105-3.276-20.686-12.39-22.49a12.04 12.04 0 00-11.179 3.552 11.994 11.994 0 00-2.828 11.368z" fill="#FF8B7B"/><path d="M158.003 28.78a46.109 46.109 0 01-17.85 9.824s6.521 13.85-5.68 10.359c-3.539-11.795 0-17.918 3.15-20.802 9.702-3.145 16.527-4.193 20.38.619z" fill="#18113C"/><path d="M135.869 50.336a6.442 6.442 0 003.612 3.334c2.1.755 3.349-1.048 2.898-3.145-.41-1.877-2.006-4.54-4.2-4.404a2.888 2.888 0 00-2.642 2.85c-.004.475.11.944.332 1.365z" fill="#FF8B7B"/><path d="M122.986 118.602l-2.027 2.988c-.157.231.105.524.515.576l37.506 4.802c.325 0 .609-.083.661-.283l.735-3.145c0-.22-.21-.44-.556-.493l-36.225-4.634a.637.637 0 00-.609.189z" fill="#754FFE"/><path d="M127.322 123.267l-.966-.126c-.189 0-.325-.147-.294-.262l.987-4.1a.347.347 0 01.399-.167l.977.126c.189 0 .325.136.294.262l-.987 4.089c-.032.125-.21.199-.41.178zm28.886 3.69l-.966-.115c-.189 0-.326-.147-.294-.273l.987-4.089c0-.115.21-.199.399-.178l.976.126c.189 0 .326.147.294.262l-.987 4.099c-.031.116-.21.2-.409.168zm-14.438-1.845l-.966-.126c-.199 0-.336-.136-.304-.262l.987-4.089c0-.126.21-.199.409-.178l.966.125c.189 0 .326.147.305.263l-.998 4.099c-.021.115-.21.189-.399.168zm9.135-83.541c.126.703.609 1.206 1.05 1.111.441-.094.724-.723.588-1.425-.137-.703-.62-1.206-1.05-1.112-.431.094-.693.724-.588 1.426zm7.939-1.52c.136.703.619 1.195 1.05 1.111.43-.083.724-.733.588-1.436-.137-.702-.62-1.195-1.05-1.111-.431.084-.714.734-.588 1.436z" fill="#18113C"/><path d="M159.2 38.699l1.596-.818s-.546 1.489-1.596.818z" fill="#18113C"/><path d="M156.743 41.623a19.412 19.412 0 003.371 3.995 3.062 3.062 0 01-2.415.954l-.956-4.949z" fill="#FF5652"/><path d="M151.787 49.403a.218.218 0 00-.051.131.212.212 0 00.303.194 5.649 5.649 0 015.124 0 .212.212 0 00.31-.233.216.216 0 00-.089-.134 6.076 6.076 0 00-5.534 0s0 .02-.063.042zm-3.622-9.992a.376.376 0 00.147-.168 3.33 3.33 0 012.373-1.876.418.418 0 00.367-.472.41.41 0 00-.462-.367 4.2 4.2 0 00-3.034 2.349.417.417 0 00.099.5.423.423 0 00.51.034zm13.041-5.316l.052-.052a.419.419 0 00-.105-.587 4.207 4.207 0 00-3.801-.567.43.43 0 00-.231.546.419.419 0 00.546.23 3.323 3.323 0 013.003.483.411.411 0 00.536-.053zm-9.912 6.123l1.596-.807s-.62 1.478-1.596.807z" fill="#18113C"/><path d="M96.316 187.412a5.59 5.59 0 01-3.932-1.615 5.574 5.574 0 01-1.654-3.91c-.147-14.888 4.82-27.459 14.364-36.35 11.749-10.946 30.072-16.031 51.618-14.333 15.109 1.196 24.801-2.474 36.015-6.741 1.848-.692 3.706-1.405 5.617-2.097a5.596 5.596 0 014.272.186 5.572 5.572 0 01-.45 10.298c-1.858.671-3.664 1.363-5.46 2.045-11.434 4.341-23.247 8.817-40.876 7.433-18.375-1.457-33.684 2.58-43.113 11.366-7.35 6.794-10.931 16.24-10.815 28.088a5.578 5.578 0 01-5.534 5.63h-.052z" fill="#754FFE"/><path d="M225.503 140.726l-22.469 8.219a7.537 7.537 0 01-5.757-.239 7.522 7.522 0 01-3.902-4.234l-9.279-25.291a7.508 7.508 0 01.239-5.749 7.53 7.53 0 014.24-3.896l22.47-8.219 14.447 39.379.011.03z" fill="#754FFE"/><path opacity=".7" d="M225.503 140.726l-22.469 8.219a7.537 7.537 0 01-5.757-.239 7.522 7.522 0 01-3.902-4.234l-9.279-25.291a7.508 7.508 0 01.239-5.749 7.53 7.53 0 014.24-3.896l22.47-8.219 14.447 39.379.011.03z" fill="#fff"/><path opacity=".2" d="M201.032 104.972l10.028-3.66 14.448 39.402-10.028 3.669a6.06 6.06 0 01-1.491-2.306l-12.6-34.379a5.973 5.973 0 01-.357-2.726z" fill="#754FFE"/><path d="M233.578 111.127l-.986.36 2.405 6.557.986-.361-2.405-6.556zm-2.505-3.723l-3.539-9.667a8.557 8.557 0 00-3.138-4.052 8.576 8.576 0 00-4.894-1.536 8.408 8.408 0 00-2.919.514L210.199 95l-.368-.986 6.395-2.338a9.458 9.458 0 013.276-.576 9.646 9.646 0 019.019 6.29l3.539 9.667-.987.346z" fill="#754FFE"/><path d="M225.677 143.549l9.377-3.386a5.889 5.889 0 003.54-7.543l-12.727-35.135a5.9 5.9 0 00-7.553-3.535l-9.377 3.386a5.888 5.888 0 00-3.54 7.543l12.727 35.135a5.9 5.9 0 007.553 3.535z" fill="#754FFE"/><path d="M220.311 108.148a3.145 3.145 0 01-2.478 4.189 3.156 3.156 0 01-3.174-1.477 3.142 3.142 0 011.62-4.589 3.156 3.156 0 014.032 1.877zm7.843 21.378a3.141 3.141 0 01-.83 3.395 3.154 3.154 0 01-4.821-.682 3.145 3.145 0 012.824-4.778 3.15 3.15 0 012.827 2.065z" fill="#18113C"/><path d="M136.101 126.999l-.084-.094c-1.638-1.635-3.371-3.418-4.935-5.242-1.565-1.825-3.098-3.649-4.494-5.536a51.651 51.651 0 01-3.728-5.777 30.125 30.125 0 01-2.026-4.477c.63-2.097 1.302-4.194 2.1-6.207a90.597 90.597 0 013.066-7.15 104.746 104.746 0 013.612-6.91 81.939 81.939 0 011.974-3.355l1.05-1.614c.325-.525.714-1.049.987-1.5l.115-.168a5.236 5.236 0 00-1.358-7.155 5.257 5.257 0 00-7.21 1.106 57.367 57.367 0 00-1.344 1.898c-.42.618-.798 1.237-1.197 1.855a104.428 104.428 0 00-2.226 3.754 82.672 82.672 0 00-3.853 7.8c-.588 1.322-1.05 2.674-1.649 4.026-.598 1.353-.997 2.727-1.417 4.131a77.27 77.27 0 00-2.195 8.482v.242a4.187 4.187 0 00.158 2.296 34.353 34.353 0 004.021 7.591 50.62 50.62 0 005.187 6.29 64.725 64.725 0 005.87 5.295 62.37 62.37 0 006.478 4.519 2.606 2.606 0 003.913-2.417 2.595 2.595 0 00-.763-1.672l-.052-.011z" fill="#FF8B7B"/><path d="M148.302 132.211l-.137-.273a6.502 6.502 0 00-4.588-3.565l-7.97-1.614-3.895 1.939c.42 4.362 6.657 6.973 6.657 6.973l1.774 2.023a3.675 3.675 0 004.872.577l2.1-1.499a3.65 3.65 0 001.187-4.561z" fill="#FF8B7B"/><path d="M128.95 67.028c-4.421 2.023-9.125 9.027-9.125 9.027l9.45 17.667s10.742-12.362 9.839-18.548c-.735-5.253-4.536-10.725-10.164-8.146z" fill="#754FFE"/><path opacity=".3" d="M128.95 67.028c-4.421 2.023-9.125 9.027-9.125 9.027l9.45 17.667s10.742-12.362 9.839-18.548c-.735-5.253-4.536-10.725-10.164-8.146z" fill="#fff"/><path d="M411.455 298.508c-9.251 0-18.344-1.898-22.754-7.643-20.874-27.26-20.685-82.095-20.506-135.158.105-28.57 2.362-55.568-.819-76.537-1.869-12.362-8.4-20.844-14.994-25.226-9.786-6.459-23.226-2.988-28.97-1.51a5.59 5.59 0 01-6.911-3.977 5.57 5.57 0 012.114-5.9c.6-.437 1.282-.75 2.004-.922 7.172-1.856 23.993-6.186 37.916 2.998 9.397 6.197 17.524 17.258 19.887 32.87 3.307 21.808 1.05 49.204.945 78.204-.179 51.197-.357 104.134 18.207 128.343 1.501 1.95 7.35 3.701 17.062 3.197.861 0 1.701-.094 2.531-.167a5.57 5.57 0 011.069-6.387 5.587 5.587 0 013.95-1.634c12.211 0 18.637 1.048 19.876 6.626.357 1.604.546 5.63-5.355 8.388-4.41 2.065-14.931 4.435-25.252 4.435z" fill="#754FFE"/><path d="M289.214 303.32l-11.393-4.477 6.006-19.722 11.403 4.467-6.016 19.732z" fill="#FFC3BD"/><path d="M277.548 297.637l12.852 5.033a.782.782 0 01.483.838l-1.26 7.99a1.313 1.313 0 01-1.785.996c-3.223-1.332-8.274-3.534-12.358-5.138-2.51-.985-7.287-2.558-10.763-3.921-3.475-1.363-2.572-4.97-1.05-4.718 6.92 1.111 9.566-.073 12.327-1.101a2.102 2.102 0 011.554.021z" fill="#18113C"/><path opacity=".2" d="M295.23 283.598l-11.403-4.477-3.098 10.17 11.404 4.477 3.097-10.17z" fill="#000"/><path d="M309.479 130.942s-10.311 50.893-14.249 75.993c-4.431 28.13-16.138 79.515-16.138 79.515l15.151 5.945s21.641-52.612 24.654-78.09c9.083-20.707 27.143-81.643 27.143-81.643l-36.561-1.72z" fill="#754FFE"/><path d="M278.357 286.534l16.632 6.532 2.846-5.032-18.596-7.696-.882 6.196z" fill="#18113C"/><path d="M274.283 297.857a2.714 2.714 0 01-1.428-1.048 1.298 1.298 0 010-1.196.652.652 0 01.546-.419c1.102-.115 3.15 2.569 3.349 2.883a.21.21 0 01-.091.309.202.202 0 01-.119.016 10.677 10.677 0 01-2.257-.545zm-.557-2.191a.525.525 0 00-.273-.053c-.063 0-.136 0-.21.179a.834.834 0 000 .817c.305.556 1.355 1.049 2.877 1.301a8.226 8.226 0 00-2.394-2.244z" fill="#754FFE"/><path d="M276.52 298.392a.171.171 0 01-.084-.063c-.672-.797-1.617-3.261-1.05-4.11a.691.691 0 01.829-.262 1.154 1.154 0 01.735.576c.651 1.164-.084 3.617-.115 3.722a.226.226 0 01-.168.147.163.163 0 01-.075.015.152.152 0 01-.072-.025zm-.357-4.006h-.084c-.273-.062-.336 0-.368.095-.315.503.2 2.285.798 3.261.3-.97.3-2.008 0-2.978a.738.738 0 00-.346-.378z" fill="#754FFE"/><path opacity=".2" d="M331.707 161.757c-5.712 7.066-7.969 25.079-7.948 40.093 3.853-10.6 8.274-24.062 12.159-36.287l-4.211-3.806z" fill="#000"/><path d="M357.779 305.218h-12.243l-1.628-20.55h12.243l1.628 20.55z" fill="#FFC3BD"/><path d="M344.843 304.189h13.808a.765.765 0 01.756.609l1.753 7.884a1.314 1.314 0 01-1.302 1.583c-3.486-.063-8.977-.272-13.366-.272-2.709 0-7.728.283-11.456.283-3.727 0-4.2-3.68-2.698-4.016 6.856-1.499 8.893-3.554 11.077-5.525.394-.35.902-.543 1.428-.546z" fill="#18113C"/><path opacity=".2" d="M356.152 284.668h-12.254l.851 10.6h12.253l-.85-10.6z" fill="#000"/><path d="M324.305 131.582s6.783 56.711 8.211 77.125c1.984 28.413 9.66 84.506 9.66 84.506h16.275s1.743-57.288-1.197-82.776c4.053-22.238 2.772-77.146 2.772-77.146l-35.721-1.709z" fill="#754FFE"/><path d="M341.525 293.558h17.871l.809-5.714-20.129-.377 1.449 6.091z" fill="#18113C"/><path d="M341.851 305.585a2.718 2.718 0 01-1.712-.451 1.302 1.302 0 01-.354-.503 1.301 1.301 0 01-.087-.608.68.68 0 01.368-.598c.987-.503 3.853 1.258 4.2 1.457a.22.22 0 01.085.089.22.22 0 01.02.121.24.24 0 01-.168.178c-.77.194-1.559.299-2.352.315zm-1.323-1.835a.558.558 0 00-.273.052c-.053 0-.116.084-.126.242a.842.842 0 00.283.765c.483.409 1.649.461 3.15.157a8.493 8.493 0 00-3.003-1.216h-.031z" fill="#754FFE"/><path d="M344.161 305.27h-.105c-.914-.504-2.699-2.443-2.51-3.439a.685.685 0 01.672-.545 1.121 1.121 0 01.893.262c1.05.849 1.249 3.407 1.26 3.512a.241.241 0 01-.022.112.237.237 0 01-.073.087.238.238 0 01-.115.011zm-1.796-3.597h-.094c-.273 0-.294.168-.305.221-.115.576 1.05 2.097 1.932 2.747a5.085 5.085 0 00-1.05-2.789.787.787 0 00-.483-.179z" fill="#754FFE"/><path d="M329.922 53.377l-9.807-.126c-3.297 0-6.573-.105-9.818-.157-.987 0-1.953-.063-2.929-.105.063 0 .105-.115.157-.168.693-.734 1.386-1.488 2.1-2.212.357-.377.707-.744 1.05-1.1.326-.357.746-.756.966-1.05l.893-1.132a5.416 5.416 0 00-2.357-8.416 5.436 5.436 0 00-3.334-.16l-1.943.524a59.55 59.55 0 00-1.795.577c-1.176.409-2.331.86-3.476 1.352a51.607 51.607 0 00-6.667 3.544 47.925 47.925 0 00-6.248 4.75 41.405 41.405 0 00-5.575 6.196 9.53 9.53 0 00-1.05 1.803 9.173 9.173 0 00-.133 7.026 9.19 9.19 0 004.879 5.063l.955.42a40.331 40.331 0 006.678 2.201c1.995.514 3.885.85 5.744 1.164 1.858.315 3.675.566 5.481.786 1.806.22 3.591.388 5.376.535 3.559.315 7.087.472 10.605.577 3.517.105 6.961.105 10.615-.063a10.947 10.947 0 007.495-3.421 10.915 10.915 0 00-.249-15.244 10.95 10.95 0 00-7.603-3.174l-.01.01z" fill="#FFC3BD"/><path d="M335.634 72.511c-8.473 9.646-28.864 6.04-28.864 6.04l1.123-24.031a106.197 106.197 0 0121.273-2.464c11.97-.021 13.251 12.718 6.468 20.455z" fill="#18113C"/><path d="M313.017 65.12c-.504 3.879-1.05 9.1-1.375 16.125-4.421 22.332-6.069 38.153-2.163 49.697 3.087 3.806 43.312 3.072 50.547 2.338 4.2-10.38 4.641-40.177 5.134-65.225a14.421 14.421 0 00-3.322-9.469 14.464 14.464 0 00-8.7-5.02 97.257 97.257 0 00-27.426-.923 14.456 14.456 0 00-8.502 4.053 14.42 14.42 0 00-4.193 8.424z" fill="#18113C"/><path opacity=".2" d="M352.046 80.364c.136 7.633 5.68 19.827 11.917 26.013.378-6.448.62-13.442.809-20.498l-12.726-5.515z" fill="#000"/><path d="M387.095 95.2l-.357-.838a79.663 79.663 0 00-5.135-10.139c-1.869-3.145-3.885-6.112-5.974-8.975-2.09-2.862-4.305-5.599-6.573-8.262-1.155-1.32-2.3-2.642-3.507-3.92l-1.817-1.91-1.932-1.95a10.95 10.95 0 00-15.235-.134 10.919 10.919 0 00-3.385 7.48 10.921 10.921 0 002.786 7.721l.315.346 6.164 6.847c2.1 2.327 4.105 4.697 6.1 7.056.966 1.184 1.964 2.37 2.867 3.575.903 1.206 1.858 2.37 2.761 3.565 1.302 1.813 2.562 3.617 3.686 5.389a27.13 27.13 0 01-.651 2.652 76.223 76.223 0 01-2.657 7.486 272.407 272.407 0 01-3.318 7.853c-1.155 2.611-2.394 5.337-3.496 7.958l-.105.231a5.505 5.505 0 001.919 6.632 5.528 5.528 0 006.901-.436 87.035 87.035 0 006.583-6.794 83.845 83.845 0 005.912-7.444 78.718 78.718 0 002.709-4.089 47.17 47.17 0 002.509-4.456 41.63 41.63 0 002.205-5.158 23.443 23.443 0 001.344-7.035 7.847 7.847 0 00-.619-3.25z" fill="#FFC3BD"/><path d="M353.852 53.703c14.164 2.421 23.394 21.566 23.394 21.566l-17.073 18.338s-9.839-10.002-15.75-19.27c-6.374-10.087-.714-22.354 9.429-20.634zM327.98 23.517c-2.373-3.974-3.15-9.436 1.197-15.003a4.418 4.418 0 01-4.326-2.097A26.053 26.053 0 01341.745.545c12.705 0 13.65 4.897 13.22 8.241 8.694.556 15.036 23.13-7.004 27.124-12.61-13.263-19.981-12.393-19.981-12.393z" fill="#18113C"/><path d="M354.167 9.195s3.538-3.607-.861-7.968a5.923 5.923 0 014.137 4.11c.619 2.537-1.092 4.57-3.276 3.858z" fill="#18113C"/><path d="M349.295 33.152c-.336 6.952-.966 14.857.199 20.403-1.806 2.842-6.426 6.113-14.7 6.847-2.94-1.667-6.825-5.746-5.47-7.843 3.517-2.254 5.008-9.08 4-14.185l15.971-5.222z" fill="#FFC3BD"/><path opacity=".2" d="M345.263 34.463l-11.959 3.91c.406 2.175.424 4.404.052 6.585 3.57-.115 8.516-2.8 10.374-5.316a6.613 6.613 0 001.533-5.18z" fill="#000"/><path d="M352.781 22.144c-2.215 8.524-3.076 13.63-8.305 17.205-7.865 5.379-17.756-.65-18.144-9.656-.336-8.115 3.339-20.697 12.474-22.49a12.047 12.047 0 0111.159 3.58 12.005 12.005 0 012.816 11.36z" fill="#FFC3BD"/><path d="M351.017 9.94c-3.748 2.662-8.4 13.944 1.05 18.473 8.484-7.444 6.29-18.474-1.05-18.474z" fill="#18113C"/><path d="M353.18 11.292c1.607-7.423-17.157-11.26-23.1-2.59-2.016 5.222 21.966 9.835 23.1 2.59zm-13.996 19.9a18.168 18.168 0 00-6.174-1.562.218.218 0 00-.16.068.208.208 0 00-.047.075.236.236 0 00-.014.087.308.308 0 00.284.252c2.046.148 4.05.652 5.922 1.489a.25.25 0 00.325-.115.209.209 0 00.017-.09.223.223 0 00-.153-.204z" fill="#18113C"/><path d="M354.828 31.465a8.406 8.406 0 01-5.838 2.631c-2.94.063-3.686-2.736-2.268-5.127 1.281-2.097 4.347-4.78 7.014-3.711 2.667 1.069 2.94 4.204 1.092 6.207z" fill="#FFC3BD"/><path d="M339.204 21.997c-.136.703-.619 1.206-1.05 1.111-.43-.094-.714-.733-.577-1.436.136-.702.619-1.195 1.05-1.048.43.146.714.64.577 1.373zm-7.948-1.541c-.137.702-.62 1.195-1.05 1.11-.431-.083-.725-.733-.588-1.435.136-.703.619-1.206 1.05-1.112.43.095.682.734.588 1.437z" fill="#18113C"/><path d="M333.713 21.263a25.732 25.732 0 01-4.536 5.357c1.05 1.395 3.37 1.122 3.37 1.122l1.166-6.48z" fill="#ED847E"/><path d="M338.06 17.919a.452.452 0 01.42.125 3.351 3.351 0 002.793 1.206.43.43 0 01.483.357.408.408 0 01-.357.472 4.206 4.206 0 01-3.549-1.479.408.408 0 010-.587.534.534 0 01.21-.094zm-9.261-2.329a.38.38 0 01-.221-.136.433.433 0 01-.077-.148.422.422 0 01.151-.45 4.207 4.207 0 013.748-.807.43.43 0 01.273.535.449.449 0 01-.535.262 3.355 3.355 0 00-2.972.67.368.368 0 01-.367.074z" fill="#18113C"/><path d="M362.693 126.696l-9.019-.063 4.662 10.338s7.696-1.646 7.276-5.819l-2.919-4.456zm-13.608 7.035l1.48 2.915a3.505 3.505 0 004.421 1.656l3.349-1.331-4.662-10.338-3.58 2.726a3.49 3.49 0 00-1.008 4.372z" fill="#FFC3BD"/><path d="M294.033 119.084a5.6 5.6 0 01-5.096-3.409 5.585 5.585 0 011.095-6.027c4.011-4.131 7.634-7.339 10.826-10.138 7.707-6.784 10.363-9.436 10.111-14.521a51.01 51.01 0 00-1.995-9.248c-2.299-8.44-4.903-17.991-.441-25.656 2.394-4.12 6.458-6.94 12.086-8.387a5.594 5.594 0 014.174.65 5.577 5.577 0 011.956 7.562 5.59 5.59 0 01-3.337 2.587c-3.959 1.048-4.914 2.652-5.25 3.198-2.1 3.617-.074 11.103 1.564 17.11a58.116 58.116 0 012.373 11.638c.525 10.747-5.827 16.346-13.881 23.433-3.034 2.685-6.489 5.725-10.206 9.541a5.557 5.557 0 01-3.979 1.667z" fill="#754FFE"/><path d="M306.287 38.982l8.736-2.233-2.037 11.156s-7.865.24-8.453-3.9l1.754-5.023z" fill="#FFC3BD"/><path d="M321.155 42.662l-.672 2.915a3.66 3.66 0 01-4.074 2.8l-3.423-.472 2.037-11.156 4.011 1.73a3.665 3.665 0 011.82 1.708 3.65 3.65 0 01.301 2.475z" fill="#FFC3BD"/><path d="M290.91 100.739l-.238-.237a2.722 2.722 0 00-3.846.001l-30.962 30.928a2.712 2.712 0 000 3.84l.238.237a2.722 2.722 0 003.846-.001l30.963-30.928a2.713 2.713 0 00-.001-3.84zm16.137 16.093l-.237-.237a2.721 2.721 0 00-3.846 0l-30.968 30.923a2.712 2.712 0 000 3.84l.237.237a2.721 2.721 0 003.846 0l30.968-30.922a2.714 2.714 0 000-3.841z" fill="#18113C"/><path d="M265.633 112.252l21.821-21.789a7.53 7.53 0 018.204-1.63 7.524 7.524 0 012.443 1.63l19.074 19.046a7.51 7.51 0 010 10.631l-21.821 21.789-29.721-29.677z" fill="#754FFE"/><path opacity=".7" d="M265.633 112.252l21.821-21.789a7.53 7.53 0 018.204-1.63 7.524 7.524 0 012.443 1.63l19.074 19.046a7.51 7.51 0 010 10.631l-21.821 21.789-29.721-29.677z" fill="#fff"/><path opacity=".2" d="M273.16 104.679l-7.56 7.538 29.725 29.682 7.55-7.549a6.017 6.017 0 00-1.46-2.327l-25.924-25.835a6.036 6.036 0 00-2.331-1.509z" fill="#754FFE"/><path d="M264.325 108.415l-.542.542a5.887 5.887 0 000 8.333l26.469 26.43a5.907 5.907 0 008.345 0l.542-.542a5.885 5.885 0 000-8.333l-26.469-26.43a5.907 5.907 0 00-8.345 0z" fill="#754FFE"/><path d="M232.467 42.264c10.751 0 19.467-8.703 19.467-19.439 0-10.735-8.716-19.438-19.467-19.438S213 12.09 213 22.825c0 10.736 8.716 19.439 19.467 19.439z" fill="#FFD0CF"/><path d="M232.467 39.37c9.151 0 16.569-7.408 16.569-16.545S241.618 6.28 232.467 6.28c-9.15 0-16.569 7.408-16.569 16.545s7.419 16.545 16.569 16.545z" fill="#fff"/><path d="M243.671 19.26h-7.77L242.421 0l-21.157 26.39h7.77l-6.521 19.26 21.158-26.39z" fill="#E53F3C"/><path d="M244.335 36.982l2.316-2.313-26.053-26.015-2.316 2.313 26.053 26.015z" fill="#FFD0CF"/></svg>