<svg width="1378" height="411" fill="none" xmlns="http://www.w3.org/2000/svg"><mask id="a" fill="#fff"><path d="M81 42a13 13 0 11-26 0h26z"/></mask><path d="M81 42a13 13 0 11-26 0h26z" stroke="#94A3B8" stroke-width="2" mask="url(#a)"/><circle cx="195.5" cy="378.5" r="6" stroke="#94A3B8"/><rect x="245.457" y="156.516" width="22.848" height="22.848" rx="5.86" transform="rotate(43.773 245.457 156.516)" stroke="#94A3B8"/><path fill-rule="evenodd" clip-rule="evenodd" d="M146.496 223.381l6.007 3.504a2.594 2.594 0 014.149.492 2.649 2.649 0 01-.955 3.594c-.216.126-.45.22-.693.279v7.009c.24.059.471.152.686.277a2.637 2.637 0 01.955 3.594 2.595 2.595 0 01-4.203.437l-5.97 3.481c.087.268.132.547.132.829 0 1.447-1.164 2.63-2.604 2.63-1.44 0-2.604-1.176-2.604-2.63 0-.258.037-.508.106-.744l-6.006-3.502a2.593 2.593 0 01-4.141-.501 2.65 2.65 0 01.955-3.594c.215-.125.446-.218.686-.277v-7.009a2.589 2.589 0 01-.693-.279c-1.246-.723-1.672-2.336-.955-3.594a2.593 2.593 0 014.146-.495l6.009-3.505a2.656 2.656 0 01-.107-.747c0-1.454 1.164-2.63 2.604-2.63 1.44 0 2.604 1.175 2.604 2.63 0 .261-.038.513-.108.751zm-.626 1.08l6.021 3.511a2.66 2.66 0 00.248 2.034 2.598 2.598 0 001.626 1.238v7.017l-.101.027-7.864-13.757a2.31 2.31 0 00.07-.07zm-3.669.072l-7.864 13.757a3.867 3.867 0 00-.102-.028v-7.018a2.598 2.598 0 001.626-1.238 2.642 2.642 0 00.246-2.038l6.02-3.51.074.074v.001zm2.526.623l7.863 13.754a2.606 2.606 0 00-.733 1.284h-15.714a2.664 2.664 0 00-.274-.694 2.69 2.69 0 00-.458-.587l7.864-13.757a2.596 2.596 0 001.452 0zm1.198 19.95l5.983-3.489a2.608 2.608 0 01-.048-.173h-15.72l-.027.102 6.011 3.506a2.59 2.59 0 013.801.054z" fill="#E23CE5"/><path d="M244.911 58.107c0-2.247-2.73-4.376-6.916-5.697.966-4.397.536-7.896-1.355-9.016-.436-.263-.946-.387-1.503-.387v1.542c.309 0 .557.062.765.18.912.539 1.308 2.592.999 5.233a21.48 21.48 0 01-.342 2.033 31.61 31.61 0 00-4.26-.753 33.408 33.408 0 00-2.79-3.457c2.187-2.095 4.239-3.243 5.635-3.243V43c-1.845 0-4.26 1.355-6.702 3.706-2.442-2.337-4.857-3.678-6.701-3.678v1.541c1.388 0 3.448 1.141 5.635 3.222a32.326 32.326 0 00-2.771 3.45 30.487 30.487 0 00-4.267.761 21.36 21.36 0 01-.348-2.005c-.316-2.641.073-4.695.979-5.24.201-.125.463-.18.772-.18v-1.542c-.564 0-1.074.124-1.517.387-1.885 1.12-2.307 4.611-1.335 8.995-4.172 1.328-6.889 3.45-6.889 5.69 0 2.248 2.73 4.377 6.916 5.698-.966 4.397-.536 7.896 1.355 9.016.436.262.946.387 1.51.387 1.845 0 4.26-1.355 6.701-3.706 2.442 2.337 4.857 3.678 6.702 3.678.564 0 1.073-.124 1.516-.387 1.885-1.12 2.308-4.612 1.335-8.995 4.159-1.32 6.876-3.45 6.876-5.69zm-8.734-4.611a31.668 31.668 0 01-.906 2.73 36.73 36.73 0 00-1.845-3.277c.953.146 1.872.325 2.751.547zm-3.073 7.363a36.853 36.853 0 01-1.616 2.641 33.883 33.883 0 01-6.051.007 36.882 36.882 0 01-3.019-5.38 37.22 37.22 0 013.005-5.4 33.888 33.888 0 016.051-.006 36.504 36.504 0 013.019 5.38 38.936 38.936 0 01-1.389 2.758zm2.167-.899c.362.927.671 1.853.926 2.752-.879.221-1.805.408-2.764.553a37.569 37.569 0 001.838-3.305zm-6.802 7.378a28.211 28.211 0 01-1.865-2.213c.604.028 1.221.049 1.845.049.63 0 1.254-.014 1.865-.049a26.866 26.866 0 01-1.845 2.213zm-4.991-4.073a29.367 29.367 0 01-2.75-.546 31.7 31.7 0 01.905-2.731c.275.553.564 1.106.879 1.66.315.553.637 1.092.966 1.617zm4.957-14.388a28.227 28.227 0 011.865 2.212 40.345 40.345 0 00-1.844-.048c-.631 0-1.255.014-1.865.049a26.678 26.678 0 011.844-2.213zm-4.964 4.072a39.636 39.636 0 00-1.838 3.299 30.362 30.362 0 01-.926-2.752 31.734 31.734 0 012.764-.547zm-6.071 8.657c-2.375-1.044-3.911-2.413-3.911-3.499 0-1.085 1.536-2.461 3.911-3.498a20.355 20.355 0 011.858-.699 33.948 33.948 0 001.51 4.211 33.312 33.312 0 00-1.489 4.19 19.948 19.948 0 01-1.879-.705zm3.609 9.88c-.912-.54-1.308-2.593-.999-5.234.074-.65.194-1.334.342-2.032a31.61 31.61 0 004.26.753 33.42 33.42 0 002.79 3.457c-2.187 2.095-4.239 3.243-5.635 3.243-.302-.007-.556-.07-.758-.187zm15.912-5.268c.316 2.64-.073 4.694-.979 5.24-.201.125-.463.18-.771.18-1.389 0-3.448-1.14-5.635-3.222a32.456 32.456 0 002.77-3.45 30.487 30.487 0 004.267-.76c.154.698.275 1.369.348 2.012zm2.583-4.612a20.1 20.1 0 01-1.858.698 33.937 33.937 0 00-1.509-4.21 33.471 33.471 0 001.489-4.19c.664.214 1.295.449 1.885.705 2.375 1.044 3.911 2.413 3.911 3.498-.007 1.086-1.543 2.462-3.918 3.499z" fill="#0EA5E9"/><path d="M228.449 61.267c1.693 0 3.066-1.415 3.066-3.16s-1.373-3.16-3.066-3.16c-1.693 0-3.066 1.415-3.066 3.16s1.373 3.16 3.066 3.16z" fill="#0EA5E9"/><g clip-path="url(#clip0_6042_28606)"><path d="M120.843 117.938l14.063-4.978 14.442 4.89-2.338 18.485-12.104 6.66-11.914-6.571-2.149-18.486z" fill="#E53E3E"/><path d="M149.349 117.85l-14.443-4.89v30.035l12.104-6.649 2.339-18.496z" fill="#E53E3E"/><path d="M134.929 116.467l-8.763 19.37 3.273-.055 1.76-4.37h7.861l1.927 4.425 3.129.056-9.187-19.426zm.022 6.206l2.962 6.151h-5.567l2.605-6.151z" fill="#fff"/></g><g clip-path="url(#clip1_6042_28606)"><path fill-rule="evenodd" clip-rule="evenodd" d="M10.646 199.115c-2.1.534-3.189 2.764-2.613 4.737.553 1.895 1.095 4.394.984 6.573-.112 2.185-.846 3.737-2.535 4.342l.473 1.86c1.773-.275 3.158.739 4.3 2.605 1.138 1.861 1.854 4.316 2.273 6.245.436 2.008 2.457 3.449 4.558 2.915l21.527-5.47c2.1-.534 3.188-2.764 2.613-4.737-.553-1.895-1.096-4.394-.984-6.573.112-2.185.843-3.736 2.532-4.341l-.473-1.86c-1.773.275-3.156-.74-4.297-2.606-1.138-1.861-1.854-4.316-2.273-6.245-.436-2.008-2.457-3.449-4.558-2.915l-21.527 5.47zm21.894 13.622c.697 2.741-.929 4.924-4.328 5.788l-5.786 1.47a.64.64 0 01-.782-.465l-3.64-14.327a.642.642 0 01.465-.781l5.753-1.462c2.834-.72 5.083.34 5.681 2.692.42 1.652-.456 3.448-1.984 4.112l.022.086c2.23-.313 4.073.815 4.6 2.887zm-8.414-7.651l-3.3.839 1.183 4.651 2.778-.706c2.148-.546 3.113-1.71 2.721-3.253-.367-1.446-1.589-1.986-3.382-1.531zm-1.648 7.336l1.302 5.126 3.42-.869c2.237-.568 3.194-1.765 2.766-3.449-.428-1.683-1.865-2.237-4.212-1.641l-3.276.833z" fill="#663CFF"/></g><rect x="34.623" y="330.5" width="20.478" height="20.478" rx="7.5" transform="rotate(-16.68 34.623 330.5)" stroke="#94A3B8"/><path d="M218.022 287l27.312 8.548-9.023 28.829L209 315.829 218.022 287z" fill="#F8DC4D"/><path d="M217.664 313.339l2.508-.681c.167.881.334 1.634 1.214 1.909.843.264 1.484.083 1.908-1.272l2.883-9.212 2.566.804-2.895 9.25c-.878 2.806-2.836 3.595-5.11 2.884-2.053-.643-2.893-2.138-3.074-3.682zm9.166 2.55l2.49-.623c.253 1.12.75 2.041 2.015 2.437 1.064.332 1.917-.017 2.16-.791.29-.928-.303-1.476-1.307-2.384l-.551-.492c-1.591-1.411-2.492-2.841-1.802-5.047.636-2.032 2.587-3.121 4.879-2.404 1.632.511 2.617 1.478 2.97 3.31l-2.423.729c-.179-.97-.553-1.448-1.286-1.678-.752-.235-1.386.119-1.592.777-.254.813.119 1.291 1.062 2.139l.551.491c1.872 1.669 2.786 3.06 2.077 5.324-.763 2.438-2.996 3.206-5.434 2.442-2.383-.745-3.548-2.427-3.809-4.23" fill="#1E2248"/><g clip-path="url(#clip2_6042_28606)"><path d="M104.863 305.009c-8.103 0-7.597 3.514-7.597 3.514l.009 3.64h7.732v1.094H94.203s-5.185-.589-5.185 7.588c0 8.176 4.526 7.886 4.526 7.886h2.7v-3.794s-.145-4.526 4.454-4.526h7.67s4.309.07 4.309-4.165v-7s.654-4.237-7.814-4.237zm-4.264 2.448a1.392 1.392 0 01.533 2.677 1.391 1.391 0 01-1.517-.302 1.385 1.385 0 01-.301-1.516 1.39 1.39 0 011.285-.859z" fill="url(#paint0_linear_6042_28606)"/><path d="M105.093 336.763c8.103 0 7.597-3.514 7.597-3.514l-.009-3.641h-7.733v-1.093h10.804s5.186.588 5.186-7.588c0-8.177-4.526-7.887-4.526-7.887h-2.701v3.794s.146 4.526-4.454 4.526h-7.669s-4.31-.069-4.31 4.165v7.001s-.654 4.237 7.815 4.237zm4.264-2.448a1.392 1.392 0 110-2.783 1.392 1.392 0 010 2.782v.001z" fill="url(#paint1_linear_6042_28606)"/></g><mask id="b" fill="#fff"><path d="M1188 27c0 3.448-1.37 6.754-3.81 9.192a12.994 12.994 0 01-18.38 0A12.994 12.994 0 011162 27h26z"/></mask><path d="M1188 27c0 3.448-1.37 6.754-3.81 9.192a12.994 12.994 0 01-18.38 0A12.994 12.994 0 011162 27h26z" stroke="#94A3B8" stroke-width="2" mask="url(#b)"/><circle cx="1127" cy="311" r="7.5" stroke="#94A3B8"/><rect x="1176.46" y="154.62" width="16.812" height="16.812" rx="3.985" transform="rotate(-21.765 1176.46 154.62)" stroke="#94A3B8"/><rect x="1333.65" y="223.883" width="16.812" height="16.812" rx="3.985" transform="rotate(-21.765 1333.65 223.883)" stroke="#94A3B8"/><g clip-path="url(#clip3_6042_28606)"><path d="M1334.17 303.002l-3.63 6.56-3.62-6.56h-12.07l15.69 28.405 15.7-28.405h-12.07z" fill="#38A169"/><path d="M1334.17 303.002l-3.63 6.56-3.62-6.56h-5.79l9.41 17.042 9.42-17.042h-5.79z" fill="#226A47"/></g><g clip-path="url(#clip4_6042_28606)"><path d="M1223.04 270.38a9.978 9.978 0 00-4.53 1.097c-.47-.965-.94-1.808-1.02-2.437-.09-.732-.19-1.179-.09-2.052.11-.873.6-2.112.6-2.214-.01-.091-.11-.538-1.11-.548-1.01-.011-1.88.203-1.98.477-.09.274-.29.904-.42 1.554-.17.954-2.01 4.337-3.05 6.114-.35-.691-.64-1.3-.7-1.788-.08-.731-.19-1.178-.08-2.051.1-.874.59-2.113.59-2.214-.01-.092-.11-.539-1.11-.549-1.01-.01-1.88.203-1.97.478-.1.274-.21.924-.42 1.554-.21.629-2.65 6.276-3.29 7.749-.32.751-.6 1.351-.81 1.757-.2.406-.01.03-.03.071-.17.345-.27.538-.27.538v.01c-.14.254-.28.498-.35.498-.05 0-.15-.68.02-1.615.36-1.96 1.24-5.017 1.23-5.129 0-.05.17-.589-.57-.863-.71-.274-.96.183-1.02.183-.06 0-.11.162-.11.162s.79-3.442-1.51-3.442c-1.45 0-3.44 1.635-4.43 3.128-.62.355-1.95 1.107-3.36 1.909-.53.305-1.09.63-1.62.924l-.11-.122c-2.79-3.098-7.95-5.291-7.74-9.455.08-1.514.59-5.505 9.92-10.339 7.65-3.961 13.77-2.875 14.84-.457 1.51 3.453-3.28 9.871-11.22 10.796-3.03.355-4.62-.864-5.02-1.321-.42-.477-.48-.497-.64-.406-.25.142-.1.569 0 .823.24.64 1.21 1.777 2.87 2.346 1.46.498 5.01.772 9.31-.955 4.81-1.94 8.57-7.322 7.47-11.822-1.12-4.58-8.43-6.083-15.33-3.534-4.11 1.523-8.57 3.9-11.77 7.018-3.81 3.697-4.41 6.926-4.16 8.267.89 4.784 7.23 7.902 9.77 10.207-.13.071-.25.142-.36.203-1.27.65-6.1 3.281-7.31 6.063-1.37 3.149.21 5.414 1.27 5.718 3.26.945 6.6-.751 8.41-3.544 1.79-2.793 1.58-6.419.75-8.074l-.03-.061 1-.61c.64-.396 1.28-.761 1.83-1.076-.31.883-.54 1.929-.65 3.453-.14 1.787.56 4.103 1.49 5.017.41.396.9.406 1.2.406 1.08 0 1.57-.924 2.1-2.031.67-1.351 1.25-2.915 1.25-2.915s-.73 4.235 1.27 4.235c.73 0 1.47-.985 1.8-1.493v.011s.02-.031.06-.102c.04-.063.08-.127.11-.193v-.02c.3-.528.95-1.737 1.93-3.738 1.26-2.579 2.47-5.809 2.47-5.809s.12.792.48 2.092c.21.772.68 1.615 1.04 2.438-.29.426-.47.67-.47.67l.01.01a19.5 19.5 0 01-.77 1.016c-.99 1.239-2.19 2.651-2.34 3.057-.19.477-.15.833.21 1.117.27.203.74.244 1.23.203.9-.061 1.53-.294 1.84-.437a6.267 6.267 0 001.58-.863c.98-.751 1.57-1.818 1.52-3.24-.03-.782-.28-1.553-.58-2.285.09-.132.18-.264.26-.406 1.55-2.346 2.74-4.926 2.74-4.926s.11.792.48 2.092c.18.661.55 1.382.88 2.093-1.44 1.229-2.35 2.651-2.66 3.585-.58 1.726-.13 2.508.72 2.691.38.082.93-.101 1.34-.284a5.998 5.998 0 001.69-.904c.98-.752 1.91-1.798 1.86-3.209-.03-.65-.19-1.29-.42-1.9 1.23-.528 2.83-.832 4.85-.578 4.34.528 5.2 3.351 5.04 4.529-.17 1.178-1.08 1.828-1.38 2.031-.3.193-.4.265-.37.407.04.213.17.203.44.162.36-.061 2.28-.965 2.36-3.138.12-2.793-2.43-5.84-6.95-5.81zm-33.52 11.751c-1.43 1.635-3.45 2.255-4.31 1.727-.93-.559-.57-2.966 1.2-4.703 1.07-1.056 2.47-2.031 3.39-2.63.2-.132.51-.325.88-.559.06-.04.1-.061.1-.061.07-.04.15-.091.23-.142.65 2.478.03 4.652-1.49 6.368zm10.5-7.424c-.5 1.269-1.55 4.529-2.19 4.347-.54-.153-.88-2.621-.1-5.058.39-1.229 1.22-2.692 1.7-3.26.8-.914 1.66-1.219 1.87-.843.25.487-.97 4.022-1.28 4.814zm8.66 4.306c-.21.112-.41.193-.5.132-.06-.04.09-.193.09-.193s1.09-1.208 1.52-1.767c.24-.325.53-.701.85-1.127v.122c0 1.462-1.35 2.437-1.96 2.833zm6.68-1.584c-.15-.122-.13-.498.39-1.676.21-.467.68-1.249 1.49-1.991.1.305.15.599.14.874-.01 1.828-1.26 2.508-2.02 2.793z" fill="#D366C9"/></g><path d="M1268.25 368.407v.403l.34.221 6.54 4.299.92.604-.17.933-.16.881h3.22l.11-.615 2.66-14.748v4.514l.37.218 3.45 2.069-3.45 2.07-.37.218v4.617l1.16-.761 6.54-4.299.34-.221v-3.247l-.34-.221-6.54-4.299-1.14-.75.39-2.16.16-.881h-3.23l-.11.615-2.65 14.742v-3.135l-.37-.218-3.45-2.07 3.45-2.069.37-.218v-4.617l-1.16.761-6.54 4.299-.34.221v2.844z" fill="#5F6498" stroke="#94A3B8" stroke-width="1.495"/><path d="M1308.42 46c-6.86 0-12.42 5.528-12.42 12.348 0 6.82 5.56 12.349 12.42 12.349s12.42-5.528 12.42-12.349c0-6.82-5.56-12.348-12.42-12.348zm-9.75 12.477l9.62 9.566c-5.28-.068-9.55-4.313-9.62-9.566zm11.93 9.324l-11.69-11.623c.99-4.31 4.87-7.527 9.51-7.527 3.24 0 6.11 1.572 7.88 3.99l-1.35 1.185a7.967 7.967 0 00-6.53-3.393 7.96 7.96 0 00-7.49 5.22l10.2 10.139a7.948 7.948 0 005.02-5.545h-4.23v-1.899h6.25c0 4.61-3.23 8.467-7.57 9.453z" fill="#754FFE"/><g clip-path="url(#clip5_6042_28606)"><path d="M1219.64 111.72l.4-6.71 1.11-1.898s-2.53 1.035-6.76 1.035c-4.24 0-6.73-1.016-6.73-1.016l1.24 2.07.44 6.519c0 .699 2.31 1.265 5.15 1.265 2.84 0 5.15-.566 5.15-1.265zm-1.27-31.336l.84-3.341 4.68-4.926-1.23-1.05-4.95 5.246-.99 3.992a64.72 64.72 0 00-2.21-.037c-5.22 0-9.45.595-9.45 1.329 0 .733 4.23 1.328 9.45 1.328 5.22 0 9.45-.595 9.45-1.328 0-.54-2.3-1.006-5.59-1.213" fill="#D34A47"/><path d="M1217.88 82.255s-.19.04-.73.043c-.53.002-.92-.003-1.07-.142-.04-.037-.06-.111-.06-.161 0-.096.07-.152.15-.187l.08.128c-.03.012-.05.026-.05.042 0 .072.55.122.97.117.42-.006.93-.04.93-.112 0-.021-.04-.042-.1-.058l.08-.127c.11.034.2.1.2.213 0 .193-.24.222-.4.244" fill="#fff"/><path d="M1223.88 72.127c.12-.136-.06-.484-.39-.777-.34-.292-.71-.42-.83-.284s.06.484.4.777c.34.292.71.42.82.284zm-4.47 23.202c-.11-1.067 2.34-2.613 1.71-2.663-1.35.078-2.02 1.584-2.7 3.161-.25.578-1.1 3.044-1.66 2.74-.56-.303.72-2.33 1.08-3.534-.41.304-1.94 1.487-2.33.38-.63.535-1.98.825-1.83-.582-.33.594-1.08 1.424-1.99 1.08-1.19-.453.69-4.235 1.16-4.044.46.19-.1 1.052-.24 1.386-.33.737-.7 1.662-.45 1.852.43.324 1.59-1.228 1.61-1.262.22-.287.84-2.165 1.34-1.95.5.216-1.25 2.695-.6 3.187.14.1.67-.061 1-.415.21-.229.14-.736.85-2.418.7-1.683 1.33-3.778 1.81-3.618.49.16.09 1.235-.09 1.635-.81 1.882-2.22 4.99-1.55 4.755.66-.235 1.01-.25 1.66-1.01.65-.761.62-2.015 1.05-1.989.43.027.36.43.26.735.42-.488 2.02-1.516 2.4-.498.46 1.206-2.28 2.947-1.6 2.859.67-.087 1.75-.77 2.21-1.392l1.27-11.4s-1.28 1.057-9.4 1.057c-8.11 0-9.26-1.034-9.26-1.034l1.08 10.405c.58-1.629 1.94-4.923 4.08-4.812.98.05 2.28 1.929 1.16 1.992-.47.027-.52-.937-1.08-1.079-.4-.102-.96.226-1.32.581-.73.709-2.29 3.505-2.08 4.899.26 1.777 2.45-.618 2.82-1.329.26-.5.44-1.984 1.01-1.829.57.156-.05 1.687-.46 3.041-.47 1.52-.71 3.124-1.29 2.94-.59-.185.36-2.147.33-2.491-.55.505-1.56 1.784-2.85 1.151l.67 6.462s1.78 1.408 7.15 1.408 7.22-1.386 7.22-1.386l.83-7.484c-.68.663-2.84 1.84-2.98.513" fill="#D34A47"/></g><g clip-path="url(#clip6_6042_28606)"><path d="M1295.89 193.24c-.23-.228-3.16-3.919-3.66-4.528-.53-.609-.76-.495-1.1-.456-.34.038-4.03.684-4.45.722-.42.077-.69.229-.42.609.23.343 2.66 3.767 3.2 4.566l-9.71 2.321-7.68-12.899c-.31-.456-.38-.608-1.07-.57-.68.038-6.05.494-6.43.494-.38.038-.8.191-.42 1.104.38.913 6.47 14.002 6.62 14.383.16.38.61.989 1.64.761 1.06-.267 4.72-1.218 6.73-1.751 1.07 1.903 3.2 5.784 3.62 6.355.53.761.91.608 1.71.38.65-.19 9.97-3.539 10.39-3.729.42-.19.68-.304.38-.723-.23-.304-2.66-3.614-3.96-5.327.88-.228 4.04-1.065 4.38-1.179.38-.114.45-.305.23-.533zm-17.62 3.615c-.12.038-5.56 1.332-5.82 1.408-.31.076-.31.038-.31-.076-.07-.115-6.47-13.356-6.58-13.508-.08-.152-.08-.305 0-.305s5.14-.456 5.29-.456c.19 0 .15.038.23.152 0 0 7.11 12.29 7.23 12.48.15.191.07.267-.04.305zm15.3 2.854c.07.152.19.228-.12.304-.27.114-9.17 3.12-9.36 3.196-.19.076-.3.114-.53-.228-.23-.343-3.12-5.327-3.12-5.327l9.47-2.473c.23-.076.31-.115.46.114.15.266 3.12 4.299 3.2 4.414zm.6-6.697c-.22.038-3.69.913-3.69.913l-2.85-3.881c-.08-.114-.15-.228.04-.266.19-.039 3.42-.609 3.57-.647.16-.038.27-.076.46.19.19.228 2.63 3.348 2.74 3.462.11.115-.04.191-.27.229z" fill="#FB503B"/></g><defs><clipPath id="clip0_6042_28606"><path fill="#fff" transform="translate(120.832 112.882)" d="M0 0h28.618v30.208H0z"/></clipPath><clipPath id="clip1_6042_28606"><path fill="#fff" transform="rotate(-14.257 806.505 88.684)" d="M0 0h37.989v30.208H0z"/></clipPath><clipPath id="clip2_6042_28606"><path fill="#fff" transform="translate(89 305)" d="M0 0h32v31.872H0z"/></clipPath><clipPath id="clip3_6042_28606"><path fill="#fff" transform="translate(1314.85 303.002)" d="M0 0h31.395v28.405H0z"/></clipPath><clipPath id="clip4_6042_28606"><path fill="#fff" transform="translate(1180 248)" d="M0 0h50v39H0z"/></clipPath><clipPath id="clip5_6042_28606"><path fill="#fff" transform="translate(1205 71)" d="M0 0h19v42H0z"/></clipPath><clipPath id="clip6_6042_28606"><path fill="#fff" transform="translate(1264 183)" d="M0 0h32v21.926H0z"/></clipPath><linearGradient id="paint0_linear_6042_28606" x1="92.085" y1="307.865" x2="107.904" y2="323.525" gradientUnits="userSpaceOnUse"><stop stop-color="#387EB8"/><stop offset="1" stop-color="#366994"/></linearGradient><linearGradient id="paint1_linear_6042_28606" x1="101.795" y1="317.921" x2="118.782" y2="333.98" gradientUnits="userSpaceOnUse"><stop stop-color="#FFE052"/><stop offset="1" stop-color="#FFC331"/></linearGradient></defs></svg>