<svg width="455" height="327" fill="none" xmlns="http://www.w3.org/2000/svg"><path d="M455 271.521H0v.247h455v-.247zm-14.187 6.356h-32.4v.247h32.4v-.247zm-114.076 5.368h-40.482v.247h40.482v-.247zm15.443 0h-9.378v.247h9.378v-.247zm-211.919-2.838H92.173v.247h38.088v-.247zm76.008 0h-33.962v.247h33.962v-.247zm192.568-2.53h-34.546v.247h34.546v-.247zm-314.747 2.53H51.099v.247H84.09v-.247z" fill="#DBD8E9"/><path d="M225.518 327c105.937 0 191.816-5.01 191.816-11.191 0-6.181-85.879-11.191-191.816-11.191s-191.816 5.01-191.816 11.191c0 6.181 85.879 11.191 191.816 11.191z" fill="#EAE7F5"/><path d="M402.988 0H48.056a9.55 9.55 0 00-6.717 2.79 9.537 9.537 0 00-2.8 6.71v236.73a9.527 9.527 0 002.797 6.713 9.54 9.54 0 006.72 2.788h354.932a9.54 9.54 0 006.714-2.791 9.525 9.525 0 002.793-6.71V9.5a9.547 9.547 0 00-9.507-9.5z" fill="#754FFE"/><path opacity=".2" d="M402.988 0H48.056a9.55 9.55 0 00-6.717 2.79 9.537 9.537 0 00-2.8 6.71v236.73a9.527 9.527 0 002.797 6.713 9.54 9.54 0 006.72 2.788h354.932a9.54 9.54 0 006.714-2.791 9.525 9.525 0 002.793-6.71V9.5a9.547 9.547 0 00-9.507-9.5z" fill="#fff"/><path d="M38.54 24.576V246.23a9.528 9.528 0 009.516 9.5h354.932a9.536 9.536 0 009.507-9.5V24.576H38.539z" fill="#754FFE"/><path opacity=".6" d="M38.54 24.576V246.23a9.528 9.528 0 009.516 9.5h354.932a9.536 9.536 0 009.507-9.5V24.576H38.539z" fill="#fff"/><path d="M40.3 24.576V237.7a5.378 5.378 0 001.576 3.816 5.39 5.39 0 003.816 1.581h359.651a5.393 5.393 0 004.984-3.333c.27-.654.409-1.356.407-2.064V24.576H40.3z" fill="#FAFAFA"/><path d="M61.336 37.122a4 4 0 00-4 4v31.544a4 4 0 004 4h246.251a4 4 0 004-4V41.122a4 4 0 00-4-4H61.336z" fill="#754FFE"/><path opacity=".9" d="M61.336 37.122a4 4 0 00-4 4v31.544a4 4 0 004 4h246.251a4 4 0 004-4V41.122a4 4 0 00-4-4H61.336z" fill="#fff"/><path d="M306.597 88.134a4 4 0 014 4v96.989c0 2.21-1.79 4-4 4H62.325a4 4 0 01-4-4V92.134a4 4 0 014-4h244.272zm4.99 3.011a4 4 0 00-4-4H61.336a4 4 0 00-4 4v98.967a4 4 0 004 4h246.251a4 4 0 004-4V91.146z" fill="#754FFE"/><path opacity=".9" d="M306.597 88.134a4 4 0 014 4v96.989c0 2.21-1.79 4-4 4H62.325a4 4 0 01-4-4V92.134a4 4 0 014-4h244.272zm4.99 3.011a4 4 0 00-4-4H61.336a4 4 0 00-4 4v98.967a4 4 0 004 4h246.251a4 4 0 004-4V91.146z" fill="#fff"/><path d="M340.099 306.615h-7.459l-1.989-17.271h7.47l1.978 17.271zm45.27 0h-7.459l-5.817-17.271h7.459l5.817 17.271z" fill="#FF8B7B"/><path d="M376.881 305.744h9.102a.656.656 0 01.633.514l1.474 6.624a1.095 1.095 0 01-1.088 1.334c-2.968-.049-5.065-.227-8.755-.227-2.266 0-6.925.237-10.071.237s-3.542-3.094-2.266-3.371c5.758-1.265 7.915-2.966 9.765-4.646.33-.299.76-.465 1.206-.465zm-44.192 0h8.151c.15.001.295.052.412.145a.667.667 0 01.231.369l1.475 6.624a1.101 1.101 0 01-1.079 1.334c-2.968-.049-7.192-.227-10.882-.227-4.323 0-8.053.237-13.118.237-3.067 0-3.957-3.094-2.632-3.371 5.837-1.285 10.606-1.413 15.651-4.528a3.44 3.44 0 011.791-.583z" fill="#18113C"/><path d="M344.383 121.558a867.825 867.825 0 01-2.414 17.35l-2.582 17.557a15.089 15.089 0 01-2.513 5.932 19.09 19.09 0 01-4.076 4.182 31.56 31.56 0 01-9.082 4.587 55.041 55.041 0 01-9.171 2.155 65.712 65.712 0 01-4.59.524 54.174 54.174 0 01-4.65.208l-.504-5.576c2.661-.613 5.481-1.325 8.122-2.205a60.278 60.278 0 007.657-2.965 25.242 25.242 0 006.223-4.004 9.61 9.61 0 001.85-2.284 5.573 5.573 0 00.683-2.165l.286-4.162c.099-1.483.238-2.966.366-4.429.258-2.946.551-5.885.881-8.818a389.832 389.832 0 012.315-17.528l11.199 1.641z" fill="#FF8B7B"/><path d="M346.846 117.851c2.512 6.673-3.512 29.045-3.512 29.045l-16.581-8.284s.782-11.152 4.571-19.772c3.789-8.621 12.761-8.344 15.522-.989z" fill="#754FFE"/><path opacity=".3" d="M346.846 117.851c2.512 6.673-3.512 29.045-3.512 29.045l-16.581-8.284s.782-11.152 4.571-19.772c3.789-8.621 12.761-8.344 15.522-.989z" fill="#000"/><path d="M308.768 167.795l-8.142.544 3.809 8.729a7.166 7.166 0 006.697-5.23l-2.364-4.043zm-15.493 3.974l4.522 6.11 6.628-.811-3.799-8.729-7.351 3.43z" fill="#FF8B7B"/><path d="M330.661 289.344l1.148 10.024 7.42-.445-1.109-9.579h-7.459zm48.901 0h-7.469l3.898 11.566 6.945-1.552-3.374-10.014z" fill="#EA7063"/><path d="M337.981 112.71s-8.805 22.521-.445 64.467h39.918c.277-6.129-3.571-35.995 2.335-64.852a102.9 102.9 0 00-13.355-1.681 145.25 145.25 0 00-16.977 0 74.598 74.598 0 00-11.476 2.066z" fill="#754FFE"/><path opacity=".3" d="M337.981 112.71s-8.805 22.521-.445 64.467h39.918c.277-6.129-3.571-35.995 2.335-64.852a102.9 102.9 0 00-13.355-1.681 145.25 145.25 0 00-16.977 0 74.598 74.598 0 00-11.476 2.066z" fill="#000"/><path d="M352.564 133.788c-.534 5.002-3.285 8.818-6.154 8.512-2.869-.307-4.758-4.607-4.234-9.619.525-5.013 3.295-8.819 6.154-8.522 2.859.296 4.808 4.617 4.234 9.629z" fill="#754FFE"/><path opacity=".1" d="M352.564 133.788c-.534 5.002-3.285 8.818-6.154 8.512-2.869-.307-4.758-4.607-4.234-9.619.525-5.013 3.295-8.819 6.154-8.522 2.859.296 4.808 4.617 4.234 9.629z" fill="#fff"/><path d="M371.658 126.116c1.306-6.584 3.838-5.448 6.252-2.205a207.594 207.594 0 00-1.424 26.307c-1.643-2.788-7.005-13.07-4.828-24.102z" fill="#754FFE"/><path opacity=".4" d="M371.658 126.116c1.306-6.584 3.838-5.448 6.252-2.205a207.594 207.594 0 00-1.424 26.307c-1.643-2.788-7.005-13.07-4.828-24.102z" fill="#000"/><path d="M364.752 91.545c-1.069 5.457-2.137 15.452 1.682 19.1 0 0-1.494 5.526-11.644 5.526-11.15 0-5.333-5.526-5.333-5.526 6.094-1.454 5.936-5.932 4.877-10.213l10.418-8.887z" fill="#FF8B7B"/><path d="M360.498 95.173l-6.163 5.259c.262.971.438 1.964.524 2.966 2.325-.336 5.521-2.887 5.768-5.319a7.811 7.811 0 00-.129-2.906z" fill="#EA7063"/><path d="M349.181 71.12c-4.106 3.193-4.076 15.936 2.147 16.203 6.222.267 5.659-22.233-2.147-16.203z" fill="#18113C"/><path d="M366.335 85.1c-2.167 7.078-3.077 11.329-7.598 14.146-6.787 4.241-14.84-1.176-14.84-8.759 0-6.831 3.552-17.251 11.279-18.427a10.106 10.106 0 019.211 3.416 10.083 10.083 0 011.948 9.623z" fill="#FF8B7B"/><path d="M364.139 92.02c-4.165.652-6.44-20.761 3.492-16.026 14.118 6.752 3.255 14.977-3.492 16.025z" fill="#18113C"/><path d="M364.534 77.961c-5.134-.445-12.564-.227-14.176-6.564-2.246-8.838 8.33-10.143 10.941-3.381 6.292-2.066 23.625 8.73 12.08 14.206l-8.845-4.26z" fill="#18113C"/><path d="M367.681 93.798a7.07 7.07 0 01-4.997 1.977c-2.463-.05-2.967-2.422-1.721-4.38 1.158-1.769 3.829-3.865 6.015-2.866 2.186.998 2.315 3.618.703 5.27z" fill="#FF8B7B"/><path d="M337.537 177.167s-29.106 40.305-28.285 63.043c.841 23.657 19.628 56.35 19.628 56.35l12.139-2.778s-12.079-28.481-11.516-51.713c.614-25.328 34.28-45.318 34.28-64.853l-26.246-.049z" fill="#18113C"/><path d="M351.704 177.167s-14.84 41.521-10.18 62.885c5.085 23.38 30.668 57.932 30.668 57.932l12.218-3.362s-16.541-29.727-19.44-52.88c-3.156-25.12 12.525-45.89 12.525-64.575h-25.791z" fill="#18113C"/><path d="M370.332 299.684l17.57-3.262-.881-4.716-19.697 3.332 3.008 4.646z" fill="#754FFE"/><path opacity=".4" d="M370.332 299.684l17.57-3.262-.881-4.716-19.697 3.332 3.008 4.646z" fill="#fff"/><path d="M326.347 297.578l17.778-1.749-.475-4.845-19.905 1.711 2.602 4.883z" fill="#754FFE"/><path opacity=".4" d="M326.347 297.578l17.778-1.749-.475-4.845-19.905 1.711 2.602 4.883z" fill="#fff"/><path d="M354.948 84.496c-.139.583-.564.988-.99.89-.425-.1-.583-.643-.435-1.227.149-.583.564-.988.94-.89.376.1.653.643.485 1.227zm-6.619-1.592c-.138.583-.563.989-.989.9-.425-.09-.574-.643-.435-1.226.138-.583.564-.989.989-.9.426.09.574.643.435 1.226z" fill="#18113C"/><path d="M350.358 83.705a21.386 21.386 0 01-3.958 4.33 3.476 3.476 0 002.671 1.196l1.287-5.526z" fill="#FF5652"/><path d="M351.674 91.416a5.951 5.951 0 01-1.326-.158.19.19 0 01-.106-.084.184.184 0 01-.022-.134.18.18 0 01.148-.133.172.172 0 01.069.005 4.755 4.755 0 004.215-.91.177.177 0 01.247 0 .165.165 0 01.054.124.164.164 0 01-.054.124 4.947 4.947 0 01-3.225 1.166zm5.856-8.571a.347.347 0 01-.317-.208 2.802 2.802 0 00-1.929-1.67.357.357 0 01-.292-.41.357.357 0 01.411-.292 3.498 3.498 0 012.453 2.086.346.346 0 01-.064.386.343.343 0 01-.114.078.265.265 0 01-.148.03zm-11.465-2.897a.363.363 0 01-.317-.184.338.338 0 01-.04-.132.334.334 0 01.014-.137.332.332 0 01.066-.12 3.508 3.508 0 012.968-1.345.353.353 0 01-.08.702 2.849 2.849 0 00-2.314 1.087.338.338 0 01-.297.129z" fill="#18113C"/><path d="M248.75 222.933l-26.779 3.186.117.982 26.779-3.186-.117-.982zm20.582-2.475l-11.03 1.324.118.982 11.03-1.324-.118-.982zm148.825-62.76L188.59 185.053a3.999 3.999 0 00-3.498 4.445l4.057 34.002a4.002 4.002 0 004.446 3.499l229.568-27.355a4 4 0 003.498-4.445l-4.058-34.002a4.001 4.001 0 00-4.446-3.499z" fill="#754FFE"/><path d="M387.061 172.901l-109.109 13.001 2.3 19.27 109.109-13.001-2.3-19.27z" fill="#754FFE"/><g opacity=".2" filter="url(#filter0_d)"><path d="M385.075 173.138l-105.137 12.528a1.998 1.998 0 00-1.749 2.222l1.826 15.298a2 2 0 002.223 1.749l105.137-12.528a2 2 0 001.749-2.222l-1.826-15.298a2 2 0 00-2.223-1.749z" fill="#fff"/></g><path d="M220.472 213.013c5.306-4.245 6.164-11.984 1.916-17.286-4.248-5.303-11.993-6.16-17.299-1.915-5.306 4.245-6.164 11.984-1.916 17.287 4.248 5.302 11.993 6.159 17.299 1.914z" fill="#754FFE"/><g opacity=".2" filter="url(#filter1_d)"><path d="M220.472 213.013c5.306-4.245 6.164-11.984 1.916-17.286-4.248-5.303-11.993-6.16-17.299-1.915-5.306 4.245-6.164 11.984-1.916 17.287 4.248 5.302 11.993 6.159 17.299 1.914z" fill="#fff"/></g><path d="M257.343 206.82c4.142-5.385 3.132-13.106-2.257-17.245-5.388-4.14-13.115-3.13-17.257 2.255-4.143 5.385-3.132 13.106 2.256 17.245 5.389 4.14 13.116 3.13 17.258-2.255z" fill="#754FFE"/><g opacity=".2" filter="url(#filter2_d)"><path d="M257.343 206.82c4.142-5.385 3.132-13.106-2.257-17.245-5.388-4.14-13.115-3.13-17.257 2.255-4.143 5.385-3.132 13.106 2.256 17.245 5.389 4.14 13.116 3.13 17.258-2.255z" fill="#fff"/></g><path d="M382.638 118.128a55.228 55.228 0 011.702 3.954c.514 1.345.989 2.6 1.504 3.955.989 2.62 1.81 5.279 2.552 7.997.769 2.732 1.4 5.5 1.89 8.295l.356 2.125.257 2.165c.099.722.139 1.463.188 2.195l.079 1.107v1.72a15.312 15.312 0 01-1.662 5.566 33.712 33.712 0 01-2.374 4.024 65.61 65.61 0 01-5.352 6.703 107.318 107.318 0 01-12.07 11.349l-3.957-3.955c3.225-4.122 6.45-8.383 9.369-12.614a70.244 70.244 0 003.957-6.387 23.204 23.204 0 001.434-3.064 6.522 6.522 0 00.495-2.126s0-.049 0 0c0 .05 0 .06 0 0v-.227l-.138-.89c-.09-.603-.169-1.186-.307-1.799l-.356-1.799-.426-1.819a111.409 111.409 0 00-2.067-7.276 171.217 171.217 0 00-2.533-7.257 156.54 156.54 0 00-1.375-3.598l-1.454-3.678 10.288-4.666z" fill="#FF8B7B"/><path d="M381.353 112.82c6.658 2.56 11.436 26.899 11.436 26.899l-15.829 6.238s-5.312-12.229-7.103-21.274c-1.88-9.52 3.937-14.74 11.496-11.863z" fill="#754FFE"/><path opacity=".3" d="M381.353 112.82c6.658 2.56 11.436 26.899 11.436 26.899l-15.829 6.238s-5.312-12.229-7.103-21.274c-1.88-9.52 3.937-14.74 11.496-11.863z" fill="#000"/><path d="M374.447 307.049a2.318 2.318 0 01-1.444-.376 1.083 1.083 0 01-.366-.939.548.548 0 01.306-.494c.831-.425 3.235 1.048 3.502 1.226a.157.157 0 01.08.178.17.17 0 01-.129.138 8.601 8.601 0 01-1.949.267zm-1.108-1.542a.429.429 0 00-.238.049c-.049 0-.098.069-.108.208a.702.702 0 00.237.632 3.573 3.573 0 002.651.139 7.218 7.218 0 00-2.542-1.028z" fill="#754FFE"/><path d="M376.356 306.792a.15.15 0 01-.089 0c-.771-.415-2.265-2.046-2.107-2.877a.578.578 0 01.564-.464.985.985 0 01.752.227c.87.702 1.048 2.857 1.058 2.966a.208.208 0 01-.079.168.18.18 0 01-.099-.02zm-1.454-3.025h-.089c-.228 0-.247.139-.257.178-.089.494.86 1.73 1.632 2.313a4.29 4.29 0 00-.88-2.343.667.667 0 00-.406-.148zm-45.309 3.282a2.851 2.851 0 01-1.821-.455.988.988 0 01-.326-.86.576.576 0 01.287-.474c.91-.505 3.907.988 4.254 1.196a.171.171 0 01.071.075.184.184 0 01.018.103.171.171 0 01-.139.148c-.771.163-1.556.252-2.344.267zm-1.356-1.542a.605.605 0 00-.326.069.213.213 0 00-.085.078.216.216 0 00-.034.11.669.669 0 00.218.563c.455.406 1.691.485 3.334.208a9.613 9.613 0 00-3.107-1.028z" fill="#754FFE"/><path d="M331.898 306.793h-.07c-.9-.406-2.68-1.978-2.552-2.858 0-.197.178-.444.663-.494a1.264 1.264 0 01.989.297c.989.781 1.148 2.788 1.158 2.877a.16.16 0 01-.011.089.165.165 0 01-.059.069.209.209 0 01-.118.02zm-1.821-3.026h-.098c-.327 0-.347.159-.347.198-.089.514 1.128 1.78 2.048 2.333a4.172 4.172 0 00-.989-2.303.916.916 0 00-.614-.228z" fill="#754FFE"/><path d="M367.483 174.201l-7.321 1.977 6.065 7.346s5.866-3.035 4.6-6.327l-3.344-2.996z" fill="#FF8B7B"/><path d="M354.859 182.279l5.303 5.753 6.065-4.518-6.065-7.345-5.303 6.11zM118.307 95.114a134.469 134.469 0 00-5.055 5.407c-1.633 1.859-3.265 3.767-4.798 5.724-1.534 1.958-2.968 3.955-4.383 5.932l-.989 1.532-.99 1.552a28.435 28.435 0 00-.9 1.582l-.781 1.434a7.804 7.804 0 00-.535 2.57 24.37 24.37 0 000 3.401c.173 2.445.487 4.877.94 7.286.426 2.461.99 4.943 1.553 7.395.564 2.451 1.217 4.943 1.86 7.384l-3.621 1.355a104.843 104.843 0 01-5.5-14.829 59.403 59.403 0 01-1.721-7.909 30.32 30.32 0 01-.307-4.32 13.834 13.834 0 01.85-5.003c.218-.543.347-.761.495-1.087l.446-.929c.296-.623.603-1.236.93-1.829l.989-1.799.99-1.75a75.018 75.018 0 014.51-6.673c1.603-2.136 3.265-4.232 5.016-6.229 1.751-1.997 3.522-3.954 5.55-5.852l5.451 5.655z" fill="#FF8B7B"/><path d="M118.722 83.339c-5.293.237-10.328 9.026-10.328 9.026l6.262 12.773s10.219-6.387 10.348-14.147c.079-5.042-1.068-7.89-6.282-7.652z" fill="#754FFE"/><path opacity=".5" d="M118.722 83.339c-5.293.237-10.328 9.026-10.328 9.026l6.262 12.773s10.219-6.387 10.348-14.147c.079-5.042-1.068-7.89-6.282-7.652z" fill="#000"/><path d="M103.23 144.83l6.45 1.918-4.293 4.34s-4.64-1.434-5.293-4.587l3.136-1.671z" fill="#FF8B7B"/><path d="M113.578 151.701l-1.078 4.152-7.113-4.765 4.293-4.34 3.898 4.953z" fill="#FF8B7B"/><path d="M257.436 108.82l-148.445 3.547a4 4 0 00-3.903 4.095l1.219 50.945a4.001 4.001 0 004.095 3.904l148.445-3.548a4 4 0 003.903-4.094l-1.219-50.946a4 4 0 00-4.095-3.903z" fill="#754FFE"/><path opacity=".6" d="M257.436 108.82l-148.445 3.547a4 4 0 00-3.903 4.095l1.219 50.945a4.001 4.001 0 004.095 3.904l148.445-3.548a4 4 0 003.903-4.094l-1.219-50.946a4 4 0 00-4.095-3.903z" fill="#fff"/><path d="M249.574 113.703l-50.325 1.202a4 4 0 00-3.903 4.095l.334 13.972a4.001 4.001 0 004.095 3.904l50.324-1.203a4 4 0 003.904-4.094l-.335-13.973a4 4 0 00-4.094-3.903z" fill="#754FFE"/><path opacity=".7" d="M249.574 113.703l-50.325 1.202a4 4 0 00-3.903 4.095l.334 13.972a4.001 4.001 0 004.095 3.904l50.324-1.203a4 4 0 003.904-4.094l-.335-13.973a4 4 0 00-4.094-3.903z" fill="#fff"/><path d="M218.302 141.055l-50.325 1.203a4 4 0 00-3.903 4.094l.335 13.973a4 4 0 004.094 3.903l50.325-1.202a4 4 0 003.903-4.095l-.334-13.972a4 4 0 00-4.095-3.904z" fill="#754FFE"/><path opacity=".7" d="M218.302 141.055l-50.325 1.203a4 4 0 00-3.903 4.094l.335 13.973a4 4 0 004.094 3.903l50.325-1.202a4 4 0 003.903-4.095l-.334-13.972a4 4 0 00-4.095-3.904z" fill="#fff"/><path d="M155.277 63.864c-.099.603.139 1.156.535 1.226.395.069.801-.346.91-.989.109-.643-.149-1.157-.544-1.236-.396-.079-.851.386-.901.999z" fill="#18113C"/><path d="M155.949 62.905l1.524-.138s-.93.988-1.524.138z" fill="#18113C"/><path d="M155.643 64.546a17 17 0 001.533 4.28 2.68 2.68 0 01-2.236 0l.703-4.28z" fill="#A02724"/><path d="M156.711 59.989a.338.338 0 01-.168-.05 2.97 2.97 0 00-2.661-.158.353.353 0 01-.276.023.36.36 0 01-.209-.18.337.337 0 01-.044-.135.346.346 0 01.192-.35 3.676 3.676 0 013.334.168.354.354 0 01.19.35.37.37 0 01-.041.134.346.346 0 01-.317.198z" fill="#18113C"/><path d="M135.897 68.847c.148 4.616-.327 12.94-3.958 15.293 0 0 .475 4.755 8.795 6.357 9.142 1.77 5.115-3.658 5.115-3.658-4.798-2.155-4.056-5.803-2.612-9.095l-7.34-8.897zm24.91 26.939a98.393 98.393 0 002.088 7.197 83.493 83.493 0 002.681 7.029 50.588 50.588 0 003.403 6.505 26.332 26.332 0 004.264 5.398 13.823 13.823 0 002.513 1.868 9.59 9.59 0 001.316.653l.415.158c.11.032.222.052.336.059a5.06 5.06 0 002.296-.494 17.017 17.017 0 002.859-1.631 63.785 63.785 0 0010.882-10.381l3.225 2.146a58.747 58.747 0 01-2.127 3.539 48.897 48.897 0 01-2.374 3.361 41.645 41.645 0 01-5.708 6.248 21.358 21.358 0 01-3.78 2.659 11.612 11.612 0 01-5.302 1.503 9.311 9.311 0 01-1.633-.138 9.7 9.7 0 01-1.484-.406 16.14 16.14 0 01-2.275-.988 20.613 20.613 0 01-3.957-2.689c-4.699-4.083-7.568-9.125-9.893-14.167a71.238 71.238 0 01-3.057-7.731 74.323 74.323 0 01-2.256-8.037l7.568-1.66z" fill="#FF8B7B"/><path d="M193.424 112.532l2.246-4.112 6.232 1.651s-3.739 5.684-6.925 5.694l-1.553-3.233z" fill="#FF8B7B"/><path d="M200.745 106.938l4.739 3.133h-3.581l-6.243-1.651 5.085-1.482zm-84.743 199.143l7.637.553 2.266-17.518-7.638-.563-2.265 17.528zm-60.091-37.686l5.273 5.665L75.5 263.818l-5.282-5.665-14.306 10.242z" fill="#FF8B7B"/><path d="M63.5 273.18l-4.413-7.513a.604.604 0 00-.752-.277l-6.272 2.531a1.22 1.22 0 00-.658.756 1.214 1.214 0 00.134.994c1.573 2.59 2.463 3.766 4.402 7.068 1.187 1.977 2.73 5.121 4.373 7.909 1.642 2.788 4.432 1.374 3.957.059-1.979-5.882-.99-7.592-.554-10.202.078-.453.002-.92-.218-1.325zm60.614 32.377h-8.577a.615.615 0 00-.624.514l-1.187 6.792a1.21 1.21 0 00.286.946 1.197 1.197 0 00.901.408c2.968-.049 4.442-.227 8.222-.227 2.324 0 7.123.247 10.328.247 3.205 0 3.453-3.174 2.127-3.46-5.936-1.285-8.261-3.065-10.239-4.755a1.983 1.983 0 00-1.237-.465z" fill="#18113C"/><path d="M125.904 289.116l-1.256 9.748-7.548-1.266 1.167-9.036 7.637.554zm-55.688-30.963l5.283 5.665-5.926 4.241-5.47-5.536 6.113-4.37z" fill="#9E4541"/><path d="M116.575 129.823l30.669 5.932c14.434-42.619 11.001-43.953 11.001-43.953a63.772 63.772 0 00-6.925-3.233l-.416-.148c-1.979-.722-2.374-.82-4.996-1.592-4.511-1.058-8.716-1.977-13.91-2.679l-.989-.138c-.94-.119-1.87-.218-2.77-.307-.613-.07-1.217-.109-1.8-.148l-1.979-.109c-3.344-.158-5.738-.109-5.738-.109 1.692 26.604.415 34.206-2.147 46.484z" fill="#754FFE"/><path opacity=".5" d="M116.575 129.823l30.669 5.932c14.434-42.619 11.001-43.953 11.001-43.953a63.772 63.772 0 00-6.925-3.233l-.416-.148c-1.979-.722-2.374-.82-4.996-1.592-4.511-1.058-8.716-1.977-13.91-2.679l-.989-.138c-.94-.119-1.87-.218-2.77-.307-.613-.07-1.217-.109-1.8-.148l-1.979-.109c-3.344-.158-5.738-.109-5.738-.109 1.692 26.604.415 34.206-2.147 46.484z" fill="#000"/><path d="M152.022 104.753a25.824 25.824 0 00.9 13.356c2.543-8.324 3.957-14.019 4.769-17.914-2.345-.306-4.848.455-5.669 4.558z" fill="#754FFE"/><path opacity=".6" d="M152.022 104.753a25.824 25.824 0 00.9 13.356c2.543-8.324 3.957-14.019 4.769-17.914-2.345-.306-4.848.455-5.669 4.558z" fill="#000"/><path d="M157.957 91.654c5.115 3.331 8.37 10.756 9.231 14.997l-11.872 9.659s-6.46-14.414-4.343-18.092c2.226-3.836 5.055-7.82 6.984-6.564z" fill="#754FFE"/><path opacity=".5" d="M157.957 91.654c5.115 3.331 8.37 10.756 9.231 14.997l-11.872 9.659s-6.46-14.414-4.343-18.092c2.226-3.836 5.055-7.82 6.984-6.564z" fill="#000"/><path d="M135.144 58.258c-.762 7.514-1.256 10.677 1.89 15.215 4.729 6.831 14.167 6.406 17.174-.663 2.711-6.356 3.512-17.577-3.314-21.947a10.115 10.115 0 00-13.952 2.54 10.1 10.1 0 00-1.798 4.855z" fill="#FF8B7B"/><path d="M135.254 42.925c-4.62 3.42-1.662 4.241-3.631 7.692-2.107 3.697-4.323-.514-8.518 3.549-2.721 2.64 1.979 5.437-1.454 10.083-2.632 3.609-5.481.485-4.373 7.91.762 5.051-2.335 4.418-4.422 7.275-2.968 4.093-.307 7.03 7.331 8.572 7.637 1.542 2.196 9.213 9.378 9.44 7.835.258 6.015-9.945 9.834-7.463 3.818 2.481 10.773.217 10.348-5.883-.376-5.595-6.599-5.397-1.563-9.223 3.957-2.966 5.154-2.966 2.364-9.332-2.364-5.418 6.322-4.588 6.164-9.283-.297-8.473-6.164-5.932-8.014-10.272-1.197-2.847-7.528-7.454-13.444-3.065z" fill="#18113C"/><path d="M149.757 62.173a6.789 6.789 0 001.355 3.885c1.168 1.592 2.543 1.177 2.879-.286.307-1.315.069-3.727-1.425-4.835-1.493-1.107-2.799-.336-2.809 1.236z" fill="#FF8B7B"/><path d="M139.122 134.192s-14.919 49.935-22.21 78.693c-7.697 30.35-44.4 55.075-44.4 55.075l-7.826-7.751s24.535-20.691 31.985-49.014c15.126-57.478 7.845-69.657 19.904-81.342l22.547 4.339z" fill="#754FFE"/><path opacity=".8" d="M139.122 134.192s-14.919 49.935-22.21 78.693c-7.697 30.35-44.4 55.075-44.4 55.075l-7.826-7.751s24.535-20.691 31.985-49.014c15.126-57.478 7.845-69.657 19.904-81.342l22.547 4.339z" fill="#fff"/><path d="M73.194 269.098l-9.784-9.718 2.661-2.946 11.902 10.123-4.779 2.541zm58.923-124.268c-9.794 7.543-10.447 36.292-10.22 49.282 4.947-18.161 10.883-38.358 14.306-50.043-.94-.791-2.286-.633-4.086.761z" fill="#754FFE"/><path opacity=".6" d="M132.117 144.83c-9.794 7.543-10.447 36.292-10.22 49.282 4.947-18.161 10.883-38.358 14.306-50.043-.94-.791-2.286-.633-4.086.761z" fill="#fff"/><path d="M65.082 277.253a.858.858 0 01-.277 0c-.93-.287-1.593-1.977-1.91-2.966a.176.176 0 01.06-.187.168.168 0 01.099-.033.17.17 0 01.099.033c.287.138 2.76 1.433 2.859 2.402a.629.629 0 01-.257.563 1.06 1.06 0 01-.673.188zm-1.692-2.699c.455 1.305.99 2.155 1.514 2.314a.68.68 0 00.633-.168.237.237 0 00.109-.238c-.05-.514-1.286-1.364-2.256-1.908zm83.359-138.799s1.91 60.423-2.364 83.181c-4.442 23.667-17.976 77.516-17.976 77.516l-11.011-1.424s6.926-54.373 9.893-77.911c3.216-25.645-.989-85.702-.989-85.702l22.447 4.34z" fill="#754FFE"/><path opacity=".8" d="M146.749 135.755s1.91 60.423-2.364 83.181c-4.442 23.667-17.976 77.516-17.976 77.516l-11.011-1.424s6.926-54.373 9.893-77.911c3.216-25.645-.989-85.702-.989-85.702l22.447 4.34z" fill="#fff"/><path d="M128.754 297.075l-15.7-2.017.188-3.727 17.085.742-1.573 5.002zM65.33 274.87a5.621 5.621 0 01-2.355-.533.217.217 0 01-.09-.159.199.199 0 01.1-.158c.079-.049 1.978-1.127 2.968-.781a.99.99 0 01.613.554.631.631 0 01-.129.791 1.745 1.745 0 01-1.108.286zm-1.86-.701c.86.346 2.354.494 2.75.138.069-.049.128-.148 0-.366a.588.588 0 00-.386-.356 4.068 4.068 0 00-2.365.584zm63.483 32.722a12.843 12.843 0 01-2.394-.277.187.187 0 01-.149-.148.183.183 0 01.099-.188c.347-.178 3.443-1.74 4.363-1.216a.586.586 0 01.297.475.982.982 0 01-.356.879 2.87 2.87 0 01-1.86.475zm-1.791-.534c1.682.277 2.968.208 3.413-.208a.657.657 0 00.228-.583.226.226 0 00-.109-.198c-.505-.276-2.256.386-3.532.989z" fill="#754FFE"/><path d="M124.608 306.615a.207.207 0 01-.099 0 .19.19 0 01-.079-.168c0-.139.406-3.451 2.226-3.253.495.049.643.307.673.504.138.86-1.712 2.521-2.642 2.966l-.079-.049zm1.91-3.095c-1.108 0-1.544 1.819-1.672 2.59.989-.563 2.206-1.868 2.127-2.382 0 0 0-.168-.356-.198l-.099-.01zm-10.101-175.565l-1.83 2.452c-.148.198.07.455.426.524l32.122 6.218c.277.06.535 0 .574-.207l.732-2.67c0-.187-.168-.385-.465-.445l-31.024-6.01a.544.544 0 00-.535.138z" fill="#754FFE"/><path d="M120.009 132.206l-.831-.159c-.159 0-.277-.148-.248-.247l.99-3.46c0-.099.188-.158.346-.128l.831.158c.168 0 .277.148.247.247l-.989 3.46c-.02.099-.178.158-.346.129z" fill="#754FFE"/><path opacity=".8" d="M120.009 132.206l-.831-.159c-.159 0-.277-.148-.248-.247l.99-3.46c0-.099.188-.158.346-.128l.831.158c.168 0 .277.148.247.247l-.989 3.46c-.02.099-.178.158-.346.129z" fill="#fff"/><path d="M140.991 136.319l-.831-.168c-.168 0-.277-.139-.247-.237l.989-3.47c0-.099.188-.159.357-.119l.831.158c.168 0 .277.138.247.247l-.989 3.46c-.03.099-.188.158-.357.129z" fill="#754FFE"/><path opacity=".8" d="M140.991 136.319l-.831-.168c-.168 0-.277-.139-.247-.237l.989-3.47c0-.099.188-.159.357-.119l.831.158c.168 0 .277.138.247.247l-.989 3.46c-.03.099-.188.158-.357.129z" fill="#fff"/><path d="M56.387 12.161a2.871 2.871 0 01-2.873 2.87 2.871 2.871 0 112.873-2.87zm8.993 0a2.871 2.871 0 01-2.873 2.87 2.871 2.871 0 112.873-2.87zm8.994 0a2.871 2.871 0 01-2.873 2.87 2.871 2.871 0 112.873-2.87z" stroke="#fff"/><defs><filter id="filter0_d" x="276.175" y="173.124" width="114.963" height="35.826" filterUnits="userSpaceOnUse" color-interpolation-filters="sRGB"><feFlood flood-opacity="0" result="BackgroundImageFix"/><feColorMatrix in="SourceAlpha" values="0 0 0 0 0 0 0 0 0 0 0 0 0 0 0 0 0 0 127 0"/><feOffset dy="2"/><feGaussianBlur stdDeviation="1"/><feColorMatrix values="0 0 0 0 0 0 0 0 0 0 0 0 0 0 0 0 0 0 0.5 0"/><feBlend in2="BackgroundImageFix" result="effect1_dropShadow"/><feBlend in="SourceGraphic" in2="effect1_dropShadow" result="shape"/></filter><filter id="filter1_d" x="198.473" y="191.114" width="28.615" height="28.597" filterUnits="userSpaceOnUse" color-interpolation-filters="sRGB"><feFlood flood-opacity="0" result="BackgroundImageFix"/><feColorMatrix in="SourceAlpha" values="0 0 0 0 0 0 0 0 0 0 0 0 0 0 0 0 0 0 127 0"/><feOffset dy="2"/><feGaussianBlur stdDeviation="1"/><feColorMatrix values="0 0 0 0 0 0 0 0 0 0 0 0 0 0 0 0 0 0 0.5 0"/><feBlend in2="BackgroundImageFix" result="effect1_dropShadow"/><feBlend in="SourceGraphic" in2="effect1_dropShadow" result="shape"/></filter><filter id="filter2_d" x="233.278" y="187.026" width="28.615" height="28.598" filterUnits="userSpaceOnUse" color-interpolation-filters="sRGB"><feFlood flood-opacity="0" result="BackgroundImageFix"/><feColorMatrix in="SourceAlpha" values="0 0 0 0 0 0 0 0 0 0 0 0 0 0 0 0 0 0 127 0"/><feOffset dy="2"/><feGaussianBlur stdDeviation="1"/><feColorMatrix values="0 0 0 0 0 0 0 0 0 0 0 0 0 0 0 0 0 0 0.5 0"/><feBlend in2="BackgroundImageFix" result="effect1_dropShadow"/><feBlend in="SourceGraphic" in2="effect1_dropShadow" result="shape"/></filter></defs></svg>