<svg width="24" height="24" fill="none" xmlns="http://www.w3.org/2000/svg"><path d="M7.32 5.19a2.708 2.708 0 003.174-1.314c.643-1.203 2.369-1.203 3.012 0A2.708 2.708 0 0016.68 5.19c1.305-.395 2.525.825 2.13 2.13a2.708 2.708 0 001.314 3.174c1.203.643 1.203 2.369 0 3.012a2.708 2.708 0 00-1.314 3.174c.395 1.305-.825 2.525-2.13 2.13a2.708 2.708 0 00-3.174 1.314c-.643 1.203-2.369 1.203-3.012 0A2.708 2.708 0 007.32 18.81c-1.306.395-2.526-.825-2.13-2.13a2.708 2.708 0 00-1.315-3.174c-1.203-.643-1.203-2.369 0-3.012A2.708 2.708 0 005.19 7.32c-.395-1.306.825-2.526 2.13-2.13z" fill="#29BAF9" stroke="#fff"/><path d="M14.667 10L11 13.667 9.333 12" stroke="#fff" stroke-linecap="round" stroke-linejoin="round"/><script xmlns="" id="bw-fido2-page-script"/></svg>