<svg width="320" height="320" fill="none" xmlns="http://www.w3.org/2000/svg"><path d="M320 244.736H0v.16h320v-.16zm-32.065 10.298h-21.197v.16h21.197v-.16zm-75.953 1.74h-5.562v.16h5.562v-.16zm54.118-7.679h-12.282v.16H266.1v-.16zM61.216 250.17H33.574v.16h27.642v-.16zm9.754 0h-4.052v.16h4.051v-.16zm73.126 2.7H84.141v.16h59.955v-.16zm7.585-36.678H28.103a3.651 3.651 0 01-3.648-3.654V38.823a3.654 3.654 0 013.648-3.623h123.578a3.656 3.656 0 013.654 3.655v173.683a3.655 3.655 0 01-3.654 3.654zM28.103 35.328a3.494 3.494 0 00-3.488 3.495v173.715a3.494 3.494 0 003.488 3.494h123.578a3.498 3.498 0 003.494-3.494V38.823a3.502 3.502 0 00-3.494-3.495H28.103zm262.016 180.864H166.535a3.658 3.658 0 01-3.654-3.654V38.823a3.66 3.66 0 013.654-3.623h123.584a3.655 3.655 0 013.642 3.623v173.715a3.652 3.652 0 01-3.642 3.654zM166.535 35.328a3.501 3.501 0 00-3.494 3.495v173.715a3.502 3.502 0 003.494 3.494h123.584a3.503 3.503 0 003.495-3.494V38.823a3.503 3.503 0 00-3.495-3.495H166.535z" fill="#E8E7ED"/><path d="M171.38 244.736h22.464v-83.667H171.38v83.667z" fill="#E8E7ED"/><path d="M175.116 244.736h-3.737v-7.533h7.661l-3.924 7.533z" fill="#ECEBF1"/><path d="M262.809 244.736h22.464v-83.667h-22.464v83.667z" fill="#E8E7ED"/><path d="M171.38 241.844h94.694v-80.775H171.38v80.775z" fill="#ECEBF1"/><path d="M174.284 186.797h88.89v-22.151h-88.89v22.151z" fill="#E8E7ED"/><path d="M214.528 171.52h8.396c3.648 0 7.136-2.732 9.645-7.558h-27.686c2.509 4.838 5.997 7.558 9.645 7.558zm47.807 73.216h3.738v-7.533h-7.661l3.923 7.533z" fill="#ECEBF1"/><path d="M174.284 212.531h88.89v-22.15h-88.89v22.15z" fill="#E8E7ED"/><path d="M214.528 197.261h8.396c3.648 0 7.136-2.733 9.645-7.559h-27.686c2.509 4.858 5.997 7.559 9.645 7.559z" fill="#ECEBF1"/><path d="M174.284 238.266h88.89v-22.151h-88.89v22.151z" fill="#E8E7ED"/><path d="M214.528 222.995h8.396c3.648 0 7.136-2.733 9.645-7.558h-27.686c2.509 4.825 5.997 7.558 9.645 7.558z" fill="#ECEBF1"/><path d="M49.914 142.093h85.785V55.29H49.914v86.803z" fill="#E8E7ED"/><path d="M43.956 142.093h90.163V55.29H43.956v86.803z" fill="#ECEBF1"/><path d="M126.572 134.541v-71.7H51.519v71.7h75.053z" fill="#fff"/><path d="M88.525 72.32L74.752 86.118a17.798 17.798 0 000 25.139l13.773 13.78a.738.738 0 00.512.212.731.731 0 00.512-.212l13.779-13.78a17.798 17.798 0 000-25.139L89.555 72.32a.736.736 0 00-1.03 0zm-12.749 37.888a16.346 16.346 0 010-23.085v23.085zm26.528 0v-23.06a16.345 16.345 0 010 23.085v-.025z" fill="#ECEBF1"/><path d="M260.383 131.2h-47.93l-2.732 28.301h47.929l2.733-28.301zm-2.732 28.301l-.192 1.568h-47.936l.199-1.568h47.929z" fill="#E8E7ED"/><path d="M258.913 131.2h-47.93l-2.739 28.301h47.93l2.739-28.301z" fill="#ECEBF1"/><path d="M255.206 157.658l2.003-24.538a.596.596 0 00-.16-.448.6.6 0 00-.435-.192H212.55a.604.604 0 00-.602.551l-2.029 24.531a.608.608 0 00.362.591.6.6 0 00.24.049h44.064a.593.593 0 00.621-.544z" fill="#fff"/><path d="M243.686 159.501l-.192 1.568h-52.781l.192-1.568h52.781z" fill="#ECEBF1"/><path d="M179.259 116.07h90.003V56.237h-90.003v59.833z" fill="#E8E7ED"/><path d="M177.26 116.07h90.004V56.237H177.26v59.833z" fill="#F5F5F5"/><path d="M263.674 112.039V60.275h-82.823v51.764h82.823z" fill="#fff"/><path d="M182.355 112.032V60.269h-1.51v51.763h1.51z" fill="#E8E7ED"/><path d="M178.746 105.172h87.033v-5.415h-87.033v5.415z" fill="#F5F5F5"/><path d="M173.344 49.568h99.84a.557.557 0 01.55.55.551.551 0 01-.55.551h-99.84a.554.554 0 01-.514-.338.552.552 0 01-.043-.212.559.559 0 01.557-.55z" fill="#E8E7ED"/><path d="M171.412 50.119a1.38 1.38 0 00.852 1.276 1.382 1.382 0 10-.852-1.276zm97.1 3.098a.75.75 0 00.749-.736v-1.6a.747.747 0 00-1.437-.286.737.737 0 00-.054.286v1.6a.745.745 0 00.742.736zm-86.836 0a.753.753 0 00.723-.736v-1.6a.746.746 0 10-1.491 0v1.6a.748.748 0 00.768.736z" fill="#E8E7ED"/><path opacity=".4" d="M173.523 108.25h92.256V50.119h-92.256v58.131z" fill="#ECEBF1"/><path d="M258.246 50.119a1.382 1.382 0 102.763 0 1.382 1.382 0 00-2.763 0z" fill="#E8E7ED"/><path d="M127.68 240.589h7.398v-64.173h-7.398v64.173zm-80.257 4.064h84.813v-4.064H47.423v4.064z" fill="#ECEBF1"/><path d="M127.68 176.416H44.582v64.173h83.098v-64.173z" fill="#F5F5F5"/><path d="M117.306 184.313H54.957a4.557 4.557 0 00-4.557 4.557v11.93a4.557 4.557 0 004.557 4.557h62.349a4.557 4.557 0 004.557-4.557v-11.93a4.557 4.557 0 00-4.557-4.557zm0 27.329H54.957a4.557 4.557 0 00-4.557 4.556v11.93a4.557 4.557 0 004.557 4.557h62.349a4.557 4.557 0 004.557-4.557v-11.93a4.556 4.556 0 00-4.557-4.556z" fill="#ECEBF1"/><path d="M70.65 196.282h30.963a1.45 1.45 0 001.446-1.44 1.454 1.454 0 00-1.446-1.446H70.65a1.449 1.449 0 00-1.447 1.446 1.449 1.449 0 001.447 1.44zm0 27.328h30.963a1.445 1.445 0 001.446-1.44 1.454 1.454 0 00-1.446-1.446H70.65a1.449 1.449 0 00-1.447 1.446 1.447 1.447 0 001.447 1.44zM160 273.638c68.533 0 124.089-3.244 124.089-7.245 0-4.001-55.556-7.245-124.089-7.245s-124.09 3.244-124.09 7.245c0 4.001 55.557 7.245 124.09 7.245z" fill="#F5F5F5"/><path d="M187.424 64.928H69.152l9.19 161.069h118.266l-9.184-161.07z" fill="#18113C"/><path d="M189.721 64.928H71.449l9.19 161.069h118.273l-9.191-161.07z" fill="#754FFE"/><path opacity=".5" d="M181.574 70.342H76.857l7.508 145.798H191.8L181.574 70.342z" fill="#000"/><path d="M76.857 70.342c7.783 48.601 2.445 97.203 10.24 145.798h107.424c-7.782-48.595-2.444-97.197-10.24-145.798H76.857z" fill="#fff"/><path opacity=".3" d="M98.822 114.028a9.261 9.261 0 019.178 8.851 8.408 8.408 0 01-8.487 8.762 9.18 9.18 0 01-9.094-8.813 8.465 8.465 0 012.323-6.201 8.339 8.339 0 016.08-2.56v-.039zm-.064-1.811a10.13 10.13 0 00-7.389 3.127 10.136 10.136 0 00-2.806 7.516 11.08 11.08 0 0010.976 10.643 10.228 10.228 0 007.437-3.112 10.24 10.24 0 002.88-7.531 11.184 11.184 0 00-11.098-10.643z" fill="#754FFE"/><path d="M158.22 193.868H124.3a1.783 1.783 0 00-1.351.584 1.799 1.799 0 00-.454 1.4 2.246 2.246 0 002.183 1.991h33.92a1.772 1.772 0 001.792-1.991 2.237 2.237 0 00-2.17-1.984zm18.145-8.351h-52.748a1.808 1.808 0 00-1.837 1.984 2.176 2.176 0 002.137 1.99h52.724a1.8 1.8 0 001.37-.569 1.802 1.802 0 00.486-1.402 2.172 2.172 0 00-2.132-2.003z" fill="#ECEBF1"/><path opacity=".3" d="M99.904 148.48a9.126 9.126 0 019.056 8.813 8.483 8.483 0 01-2.362 6.202 8.383 8.383 0 01-6.105 2.56 9.188 9.188 0 01-9.114-8.813 8.47 8.47 0 015.198-8.105 8.478 8.478 0 013.327-.657zm0-1.856a10.3 10.3 0 00-10.355 10.643 11.092 11.092 0 0011.021 10.65 10.246 10.246 0 007.41-3.131 10.233 10.233 0 002.862-7.519 11.014 11.014 0 00-10.938-10.643z" fill="#754FFE"/><path d="M139.391 120.634h-18.144a2.082 2.082 0 01-2.06-1.991 1.904 1.904 0 01.539-1.399 1.932 1.932 0 011.381-.585h18.137a2.093 2.093 0 012.074 1.984 1.922 1.922 0 01-1.927 1.991zm20.942 0h-12.288a2.09 2.09 0 01-2.067-1.991 1.904 1.904 0 01.539-1.399 1.932 1.932 0 011.381-.585h12.294a2.083 2.083 0 012.067 1.984 1.907 1.907 0 01-1.173 1.84c-.238.1-.494.152-.753.151zm9.907 8.351h-48.704a2.067 2.067 0 01-2.054-1.99 1.909 1.909 0 01.539-1.399 1.912 1.912 0 011.381-.585h48.697a2.066 2.066 0 011.423.58c.381.37.605.873.625 1.404a1.915 1.915 0 01-1.16 1.834c-.236.101-.49.155-.747.156z" fill="#ECEBF1"/><path opacity=".3" d="M101.293 182.887a9.7 9.7 0 019.472 8.819 8.1 8.1 0 01-1.99 6.195 7.821 7.821 0 01-5.927 2.56 9.88 9.88 0 01-9.663-8.813 7.987 7.987 0 012.086-6.201 8.091 8.091 0 016.022-2.56zm-.089-1.85a9.724 9.724 0 00-9.404 6.603 9.728 9.728 0 00-.471 4.04c.492 5.875 5.824 10.643 11.699 10.643s10.086-4.768 9.6-10.643a11.674 11.674 0 00-11.418-10.643h-.006z" fill="#754FFE"/><path d="M178.561 159.443h-56.199a1.928 1.928 0 00-1.38.585 1.916 1.916 0 00-.54 1.399 2.075 2.075 0 002.055 1.984h56.224a1.914 1.914 0 001.92-1.984 2.062 2.062 0 00-2.08-1.984zm-13.319-8.358h-43.123a1.922 1.922 0 00-1.92 1.99 2.05 2.05 0 002.041 1.984h43.13a1.919 1.919 0 001.92-1.984 2.05 2.05 0 00-2.048-1.99z" fill="#ECEBF1"/><path d="M99.796 129.101l-.755-1.242c-1.658-2.707-5.12-5.12-6.31-5.83l.895-1.587a24.465 24.465 0 016.196 5.35c2.72-3.654 6.694-7.411 12.076-11.469l1.159 1.498c-5.76 4.333-9.843 8.32-12.461 12.115-.262.39-.531.781-.8 1.165zm.96 34.432a76.974 76.974 0 00-.761-1.242c-1.664-2.707-5.12-5.12-6.298-5.836l.91-1.588a24.535 24.535 0 016.162 5.351c2.727-3.648 6.733-7.411 12.199-11.469l1.132 1.498c-5.836 4.332-9.945 8.32-12.55 12.115l-.794 1.171zm2.195 34.508l-.845-1.241c-1.843-2.708-5.414-5.12-6.643-5.831l.832-1.587a26.896 26.896 0 016.457 5.344c2.509-3.648 6.324-7.411 11.623-11.462l1.197 1.497c-5.658 4.333-9.543 8.32-11.904 12.115l-.717 1.165zM143.425 82.56a420.893 420.893 0 01-3.462 7.366 15.84 15.84 0 018.729 12.851h8.506c-.563-8.697-6.157-16.269-13.773-20.217z" fill="#754FFE"/><path d="M111.021 102.79h8.506a13.55 13.55 0 015.914-12.397 631.952 631.952 0 00-5.044-7.373c-6.208 4.02-9.92 11.386-9.376 19.77z" fill="#18113C"/><path d="M131.916 79.705a20.958 20.958 0 00-11.52 3.315 631.952 631.952 0 015.044 7.373 13.438 13.438 0 017.462-2.189 15.52 15.52 0 017.04 1.735 542.011 542.011 0 003.463-7.367 25.091 25.091 0 00-11.489-2.867z" fill="#754FFE"/><path opacity=".5" d="M131.916 79.705a20.958 20.958 0 00-11.52 3.315 631.952 631.952 0 015.044 7.373 13.438 13.438 0 017.462-2.189 15.52 15.52 0 017.04 1.735 542.011 542.011 0 003.463-7.367 25.091 25.091 0 00-11.489-2.867z" fill="#18113C"/><path d="M142.311 96.966s-8.589 3.513-9.498 4.153a2.046 2.046 0 00-.365 2.9c.321.455.806.768 1.353.872a2.148 2.148 0 001.578-.316c.941-.678 6.944-7.61 6.932-7.61zm-9.024 6.4a.99.99 0 01-.211-.752.99.99 0 01.39-.675 1.066 1.066 0 011.446.275 1.01 1.01 0 01.211.751 1 1 0 01-.39.676 1.07 1.07 0 01-1.446-.25v-.025z" fill="#18113C"/><path d="M152.493 92.903a2.724 2.724 0 01-2.765 3.02 3.358 3.358 0 01-3.277-3.02 2.71 2.71 0 012.739-3.015 3.378 3.378 0 013.303 3.015z" fill="#fff"/><path d="M148.748 92.21a.424.424 0 01-.11.338.433.433 0 01-.325.143.533.533 0 01-.525-.48.438.438 0 01.257-.445.425.425 0 01.178-.035.53.53 0 01.525.48zm2.292 0a.448.448 0 01-.113.34.433.433 0 01-.329.14.543.543 0 01-.525-.48.436.436 0 01.111-.341.428.428 0 01.331-.138.532.532 0 01.525.48zm-1.427 2.51a2.56 2.56 0 01-1.709-.673.235.235 0 01-.068-.166.235.235 0 01.325-.219.22.22 0 01.076.053 2.08 2.08 0 001.389.55 1.701 1.701 0 001.28-.538.237.237 0 11.345.327 2.15 2.15 0 01-1.638.665z" fill="#18113C"/><path d="M135.436 83.904a2.648 2.648 0 01-.646 2.131 2.664 2.664 0 01-2.042.89 3.46 3.46 0 01-3.353-3.021 2.619 2.619 0 011.546-2.797 2.63 2.63 0 011.116-.218 3.496 3.496 0 013.379 3.015z" fill="#fff"/><path d="M131.674 83.2a.435.435 0 01-.101.337.426.426 0 01-.321.143.556.556 0 01-.538-.48.424.424 0 01.099-.34.411.411 0 01.323-.14.551.551 0 01.538.48zm2.285 0a.426.426 0 01-.429.48.563.563 0 01-.538-.48.426.426 0 01.251-.446.422.422 0 01.178-.034.555.555 0 01.538.48zm.064 1.92h-2.995a.242.242 0 01-.204-.24.245.245 0 01.204-.24h2.995a.242.242 0 01.204.24.242.242 0 01-.204.24z" fill="#18113C"/><path d="M120.237 92.903a2.734 2.734 0 01-.699 2.135 2.733 2.733 0 01-2.066.885 3.358 3.358 0 01-3.277-3.02 2.71 2.71 0 012.739-3.015 3.387 3.387 0 013.303 3.015z" fill="#fff"/><path d="M116.481 92.21a.441.441 0 01-.258.444.435.435 0 01-.178.037.53.53 0 01-.524-.48.413.413 0 01.017-.182.43.43 0 01.418-.299.528.528 0 01.525.48zm2.291 0a.438.438 0 01-.257.445.427.427 0 01-.179.036.543.543 0 01-.524-.48.413.413 0 01.017-.182.43.43 0 01.418-.299.524.524 0 01.525.48zm-2.932 2.51a.226.226 0 01-.16-.064.236.236 0 010-.333 2.185 2.185 0 011.619-.691 2.56 2.56 0 011.709.678.233.233 0 010 .333.25.25 0 01-.34 0 2.046 2.046 0 00-1.395-.55 1.72 1.72 0 00-1.28.53.248.248 0 01-.153.097zm48.474-23.962c-1.997-4.204-6.656-6.988-11.68-6.988h-10.24a3.996 3.996 0 01-3.552-1.857c-1.427-2.675-4.832-4.582-8.698-4.582-3.865 0-7.04 1.92-8.166 4.582-.467 1.127-1.805 1.857-3.341 1.857h-10.24c-5.024 0-9.37 2.783-10.88 6.988a1.035 1.035 0 00-.064.461 1.28 1.28 0 001.28 1.216h64.563a1.146 1.146 0 001.018-1.677zm-33.754-5.83a3.06 3.06 0 01-2.988-2.848 2.655 2.655 0 01.719-2.013 2.666 2.666 0 011.969-.835 3.054 3.054 0 013.014 2.848 2.65 2.65 0 01-.728 2.023 2.669 2.669 0 01-1.986.825z" fill="#18113C"/><path d="M230.669 261.83a2.048 2.048 0 01-1.421-.352.442.442 0 01-.045-.486.48.48 0 01.327-.263c.755-.211 2.502.723 2.56.768a.11.11 0 01.064.115.093.093 0 01-.023.058.092.092 0 01-.054.032 8.21 8.21 0 01-1.408.128zm-.845-.909a.746.746 0 00-.211 0 .286.286 0 00-.205.154c-.064.141 0 .211 0 .249.256.301 1.446.308 2.304.186a5.548 5.548 0 00-1.888-.589z" fill="#754FFE"/><path d="M232.077 261.703h-.045c-.595-.256-1.837-1.28-1.811-1.805 0-.128.077-.282.384-.314a.911.911 0 01.64.192c.479.502.803 1.131.935 1.812a.123.123 0 01.012.051.131.131 0 01-.012.051.113.113 0 01-.103.013zm-1.363-1.92h-.064c-.198 0-.205.096-.205.121 0 .32.839 1.12 1.459 1.466a2.971 2.971 0 00-.787-1.446.63.63 0 00-.403-.128v-.013z" fill="#754FFE"/><path d="M237.235 261.594h-4.704l-1.683-10.893h4.704l1.683 10.893z" fill="#FFAA46"/><path d="M232.499 261.05h5.12a.472.472 0 01.435.32l1.395 4.179a.637.637 0 01-.582.832c-1.856 0-4.544-.134-6.874-.134-2.72 0-2.477.147-5.67.147-1.92 0-2.682-1.952-1.92-2.131 3.59-.8 4.006-.89 6.963-2.848a1.975 1.975 0 011.133-.365z" fill="#18113C"/><path opacity=".2" d="M230.848 250.707l.87 5.613h4.704l-.87-5.613h-4.704z" fill="#000"/><path d="M236.698 144.288l-3.2 3.232 4.902 1.735s1.92-2.637.57-4.442l-2.272-.525z" fill="#FFAA46"/><path d="M232.422 152.038l4.896.717 1.094-3.501-4.902-1.734-1.088 4.518z" fill="#FFAA46"/><path d="M238.835 104.493c.416.896.749 1.658 1.082 2.49.333.832.64 1.632.96 2.451a81.821 81.821 0 011.657 5.018 52.683 52.683 0 011.28 5.216l.244 1.344.198 1.369c.07.455.115.928.154 1.395.038.468.102.89.102 1.479v1.568l-.038.723-.071.685c-.083.921-.205 1.785-.32 2.662-.256 1.728-.55 3.418-.877 5.12-.678 3.347-1.42 6.618-2.316 9.914l-5.831-1.152c.371-3.251.755-6.554 1.063-9.805.147-1.626.307-3.245.396-4.832.039-.781.084-1.574.084-2.323v-1.6l-.045-.423a9.434 9.434 0 00-.141-1.004c-.058-.359-.109-.717-.192-1.082l-.237-1.094-.275-1.101a66.124 66.124 0 00-1.357-4.429 82.079 82.079 0 00-1.683-4.41 59.677 59.677 0 00-.922-2.182c-.32-.717-.64-1.466-.953-2.086l8.038-3.911z" fill="#18113C"/><path d="M216.736 141.997s.781 35.994 2.893 50.33c2.202 14.912 10.24 62.905 10.24 62.905h7.962s-2.855-45.677-3.763-60.352c-.992-16-.775-52.883-.775-52.883h-16.557z" fill="#754FFE"/><path d="M227.954 252.058c-.038 0 .82 3.308.82 3.308h9.689l-.07-2.95-10.439-.358zm-13.011-168.41c.024-.399-.167-.735-.428-.751-.261-.016-.493.294-.517.693-.025.398.167.734.428.75.261.017.492-.294.517-.692z" fill="#18113C"/><path d="M214.745 84.339a14.85 14.85 0 01-2.022 3.405 2.246 2.246 0 001.888.358l.134-3.763z" fill="#ED847E"/><path d="M216.435 81.408a.279.279 0 01-.141-.038 1.803 1.803 0 00-1.644-.308.237.237 0 01-.179-.004.23.23 0 01-.055-.385.238.238 0 01.08-.046 2.271 2.271 0 012.086.359.237.237 0 01.045.326.242.242 0 01-.192.096z" fill="#18113C"/><path d="M227.393 88.013c-.794 3.443-1.69 9.747.64 12.038 0 0-1.063 3.488-7.456 3.488-7.04 0-3.232-3.488-3.232-3.488 3.84-.915 3.872-3.757 3.296-6.432l6.752-5.606z" fill="#FFAA46"/><path d="M230.51 101.664c.691-1.401 1.453-3.014 0-3.513-1.587-.557-10.362-1.12-13.44-.084a3.197 3.197 0 00-2.311 3.892l15.751-.295z" fill="#754FFE"/><path d="M237.241 101.402c4.051 1.869 6.112 16.038 6.112 16.038l-8.16 2.56a82.888 82.888 0 01-3.54-11.52c-1.254-5.913 1.44-8.985 5.588-7.078z" fill="#18113C"/><path d="M187.092 123.449l-3.763-3.238-3.386 4.928s3.04 2.438 6.4 1.44l.749-3.13zm-8.724-4.805l-.518 4.87 2.092 1.626 3.386-4.928-4.96-1.568zm49.888-35.873c-.474 4.89-.506 7.77-3.066 10.279a6.403 6.403 0 01-6.4 1.565 6.396 6.396 0 01-4.39-4.913c-.896-4.39 0-11.648 4.883-13.593a6.456 6.456 0 018.973 6.662z" fill="#FFAA46"/><path d="M218.24 84.34c-.429-3.38-.359-4.66 1.446-5.409-1.875-.371-3.501-.422-4.275-1.517-.775-1.094-.96-3.89 2.803-5.17-.346.64.749 1.97 4.211.767 3.463-1.203 8.506-1.331 8.96 2.189 1.831-.64 4.896 5.011 1.28 9.14-3.014 3.455-5.024 5.842-5.619 7.68a.65.65 0 01-.352.388.642.642 0 01-.525-.005c-1.248-.582-3.481-.083-4.48.186a.641.641 0 01-.729-.327c-.647-1.33-2.394-5.132-2.72-7.923z" fill="#18113C"/><path d="M230.707 75.63s1.485-2.094 4.333-.538a12.902 12.902 0 00-4.333.537z" fill="#18113C"/><path d="M230.951 76.077s2.067-1.28.455-3.693a9.31 9.31 0 01-.455 3.693z" fill="#18113C"/><path d="M220.634 84.48a5.854 5.854 0 01-1.715 3.168c-1.184 1.12-2.208.326-2.24-1.114-.032-1.28.544-3.443 1.92-4.02 1.376-.575 2.278.52 2.035 1.966z" fill="#FFAA46"/><path opacity=".3" d="M217.395 161.997c.46 10.739 1.184 23.206 2.233 30.33.403 2.713.992 6.515 1.696 10.924 2.829-15.436 4.519-35.328-3.929-41.254z" fill="#000"/><path d="M213.87 261.83c-.602 0-1.184-.083-1.37-.352a.437.437 0 010-.486.644.644 0 01.365-.263c.787-.211 2.4.723 2.47.768.02.011.035.029.044.05a.097.097 0 01.001.065.11.11 0 01-.031.059.11.11 0 01-.059.031 8.559 8.559 0 01-1.42.128zm-.711-.909a.789.789 0 00-.217 0 .33.33 0 00-.128.054.316.316 0 00-.096.1c-.084.141-.058.211-.032.249.211.301 1.395.308 2.278.186a4.863 4.863 0 00-1.805-.589z" fill="#754FFE"/><path d="M215.296 261.702h-.045c-.557-.256-1.651-1.28-1.542-1.805 0-.128.115-.281.422-.313a.814.814 0 01.64.192c.583.492.64 1.76.64 1.811 0 .02-.005.039-.014.057a.146.146 0 01-.037.045.12.12 0 01-.064.013zm-1.082-1.92h-.064c-.204 0-.217.096-.224.122-.064.32.672 1.12 1.242 1.465a2.551 2.551 0 00-.57-1.446.588.588 0 00-.384-.128v-.013z" fill="#754FFE"/><path d="M220.467 261.594h-4.698l-.089-10.893h4.704l.083 10.893z" fill="#FFAA46"/><path d="M215.814 261.05h5.12a.382.382 0 01.384.32l.787 4.179a.708.708 0 01-.71.832c-1.85 0-4.525-.134-6.848-.134-2.727 0-5.082.147-8.275.147-1.92 0-2.394-1.952-1.581-2.131 3.705-.8 6.713-.89 9.958-2.848a2.289 2.289 0 011.165-.365z" fill="#18113C"/><path opacity=".2" d="M215.686 250.707l.038 5.613h4.704l-.038-5.613h-4.704z" fill="#000"/><path d="M208.345 141.997s-1.92 35.155-1.882 49.491c0 14.912 7.552 63.744 7.552 63.744h7.962s-2.074-47.961-1.178-62.592c.954-16 5.575-50.63 5.575-50.63l-18.029-.013z" fill="#754FFE"/><path d="M212.595 252.058c-.039 0 .326 3.308.326 3.308h9.69l.371-2.95-10.387-.358zm-2.534-150.701s-8.013 20.243-4.525 55.232h29.261c.307-3.84-2.752-37.287 1.612-55.475a64.935 64.935 0 00-8.384-1.063 93.04 93.04 0 00-10.688 0 47.888 47.888 0 00-7.276 1.306z" fill="#18113C"/><path opacity=".2" d="M205.92 119.68c-.435 3.2-.793 6.854-1.024 10.88 5.684-5.223 7.629-18.234 7.629-18.234l-6.605 7.354z" fill="#000"/><path d="M213.076 110.995a193.4 193.4 0 01-3.597 8.781c-1.28 2.899-2.605 5.76-4.096 8.627l-.582 1.069-.295.538c-.121.217-.109.23-.441.787a6.26 6.26 0 01-2.311 2.15 6.898 6.898 0 01-2.502.756c-1.203.11-2.415.012-3.584-.288a19.86 19.86 0 01-2.714-.884 35.205 35.205 0 01-4.589-2.304c-.723-.416-1.414-.864-2.099-1.28-.685-.416-1.305-.947-2.041-1.459l3.456-5.299a44.922 44.922 0 007.776 3.373c.571.176 1.155.309 1.747.397.337.071.686.071 1.024 0 .038 0-.083-.039-.295.07a1.727 1.727 0 00-.64.563c-.134.224.039-.109.096-.237l.231-.505.461-1.005c1.216-2.714 2.342-5.523 3.436-8.32a234.022 234.022 0 003.136-8.538l8.423 3.008z" fill="#18113C"/><path d="M216.257 103.481c1.497 4.186-9.101 21.037-9.101 21.037l-6.285-6.227s1.607-5.293 3.725-11.668c2.086-6.265 10.234-7.142 11.661-3.142z" fill="#18113C"/></svg>