<svg width="1406" height="462" fill="none" xmlns="http://www.w3.org/2000/svg"><g filter="url(#filter0_dd_6103_29419)"><rect x="1320" y="164" width="56" height="56" rx="8" fill="#334155"/><g clip-path="url(#clip0_6103_29419)"><path d="M1350.96 204.974l.3-5.112.83-1.447s-1.89.789-5.06.789c-3.18 0-5.04-.774-5.04-.774l.93 1.578.33 4.966c0 .533 1.73.964 3.85.964 2.13 0 3.86-.431 3.86-.964zm-.95-23.875l.63-2.546 3.5-3.752-.92-.801-3.71 3.998-.73 3.041a48.8 48.8 0 00-1.66-.028c-3.91 0-7.08.453-7.08 1.012 0 .559 3.17 1.012 7.08 1.012 3.9 0 7.07-.453 7.07-1.012 0-.412-1.72-.766-4.18-.924" fill="#D34A47"/><path d="M1349.64 182.575s-.14.031-.54.033c-.4.002-.69-.003-.8-.108-.04-.029-.05-.085-.05-.123 0-.073.05-.116.11-.143l.06.098c-.02.009-.04.02-.04.032 0 .055.42.093.73.089.32-.004.7-.031.7-.085 0-.016-.03-.032-.08-.044l.06-.097c.08.026.15.076.15.162 0 .147-.18.169-.3.186" fill="#334155"/><path d="M1354.14 174.858c.08-.103-.05-.368-.3-.591-.26-.223-.53-.32-.62-.217-.09.104.04.369.3.592.25.223.53.32.62.216zm-3.35 17.679c-.08-.814 1.75-1.991 1.28-2.029-1.01.059-1.52 1.206-2.03 2.408-.18.441-.82 2.319-1.24 2.088-.42-.232.54-1.776.81-2.693-.31.232-1.45 1.133-1.74.289-.47.408-1.48.629-1.37-.443-.25.453-.81 1.085-1.49.822-.89-.345.51-3.226.86-3.08.35.145-.07.801-.18 1.056-.24.561-.52 1.266-.33 1.41.32.248 1.19-.935 1.21-.961.16-.219.62-1.649 1-1.485.37.164-.94 2.053-.45 2.428.1.075.5-.047.75-.317.16-.174.1-.56.63-1.842s1-2.878 1.36-2.756c.36.121.06.94-.07 1.246-.61 1.433-1.66 3.801-1.16 3.622.49-.179.75-.19 1.24-.77.49-.579.46-1.535.79-1.514.32.02.27.326.19.559.32-.372 1.51-1.155 1.8-.379.34.919-1.71 2.246-1.19 2.178.49-.066 1.3-.587 1.65-1.06l.95-8.686s-.96.805-7.04.805c-6.07 0-6.93-.788-6.93-.788l.81 7.928c.43-1.241 1.45-3.751 3.05-3.666.73.038 1.71 1.469.87 1.518-.35.02-.39-.715-.81-.823-.3-.078-.72.172-.99.443-.54.54-1.71 2.67-1.55 3.732.19 1.354 1.83-.47 2.11-1.012.2-.381.33-1.512.75-1.393.43.118-.03 1.285-.34 2.317-.35 1.158-.53 2.38-.97 2.239-.44-.14.27-1.636.25-1.898-.41.385-1.17 1.36-2.13.878l.5 4.923s1.33 1.072 5.35 1.072 5.4-1.055 5.4-1.055l.63-5.703c-.51.506-2.13 1.403-2.23.392" fill="#D34A47"/></g></g><g filter="url(#filter1_dd_6103_29419)"><rect x="1256" y="31" width="56" height="56" rx="8" fill="#334155"/><path d="M1284 43c-8.84 0-16 7.163-16 16s7.16 16 16 16 16-7.163 16-16-7.16-16-16-16zm-12.56 16.166l12.39 12.396c-6.8-.088-12.3-5.589-12.39-12.396zm15.37 12.082l-15.06-15.06c1.28-5.585 6.28-9.753 12.25-9.753 4.17 0 7.87 2.037 10.16 5.17l-1.74 1.535a10.238 10.238 0 00-8.42-4.397c-4.44 0-8.22 2.819-9.65 6.764l13.14 13.138a10.281 10.281 0 006.47-7.185h-5.45V59h8.06a12.582 12.582 0 01-9.76 12.248z" fill="#833BF9"/></g><g filter="url(#filter2_dd_6103_29419)"><rect x="1050" y="15" width="56" height="56" rx="8" fill="#334155"/><g clip-path="url(#clip1_6103_29419)" filter="url(#filter3_d_6103_29419)"><path d="M1078 27l14.14 8v16L1078 59l-14.14-8V35l14.14-8z" fill="#334155"/><path d="M1089.62 50.448l-11.15 6.307v-4.912l6.94-3.822 4.21 2.427zm.76-.69v-13.19l-4.08 2.355V47.4l4.08 2.357zm-24.04.69l11.15 6.307v-4.912l-6.95-3.822-4.2 2.427zm-.76-.69v-13.19l4.08 2.355V47.4l-4.08 2.357zm.47-14.043l11.44-6.47v4.75l-7.33 4.029-.05.032-4.06-2.341zm23.85 0l-11.43-6.47v4.75l7.32 4.029.06.032 4.05-2.341z" fill="#8ED6FB"/><path d="M1077.49 50.725l-6.86-3.768v-7.466l6.86 3.957v7.277zm.98 0l6.85-3.768v-7.466l-6.85 3.957v7.277zm-7.37-12.098l6.88-3.784 6.88 3.784-6.88 3.973-6.88-3.973" fill="#1C78C0"/></g></g><g filter="url(#filter4_dd_6103_29419)"><rect x="1177" y="232" width="56" height="56" rx="8" fill="#334155"/><g clip-path="url(#clip2_6103_29419)"><path d="M1216.54 261.371a6.42 6.42 0 00-2.9.705c-.3-.62-.6-1.161-.65-1.566-.05-.469-.12-.756-.05-1.317.07-.561.38-1.357.38-1.422-.01-.059-.07-.345-.71-.352-.65-.007-1.2.13-1.27.307-.06.176-.18.58-.26.997-.12.613-1.29 2.785-1.96 3.926-.22-.443-.41-.834-.44-1.147-.06-.47-.13-.757-.06-1.318s.38-1.356.38-1.422c-.01-.058-.07-.345-.71-.352-.65-.006-1.2.131-1.26.307-.07.176-.14.593-.27.998-.13.404-1.7 4.03-2.1 4.976-.21.482-.39.867-.52 1.128-.13.261-.01.02-.02.046-.11.221-.18.345-.18.345v.007c-.08.163-.18.319-.22.319-.03 0-.09-.437.01-1.037.23-1.258.8-3.221.79-3.293 0-.033.11-.378-.36-.554-.46-.176-.62.117-.66.117-.04 0-.07.104-.07.104s.51-2.21-.97-2.21c-.92 0-2.2 1.05-2.83 2.008-.4.229-1.25.711-2.15 1.226-.34.196-.7.405-1.04.594l-.06-.079c-1.79-1.989-5.1-3.397-4.96-6.071.05-.972.37-3.535 6.35-6.639 4.89-2.544 8.81-1.846 9.49-.294.97 2.218-2.09 6.339-7.18 6.933-1.94.228-2.95-.555-3.21-.848-.27-.307-.31-.32-.41-.261-.16.091-.06.365 0 .528.15.411.78 1.142 1.84 1.507.93.319 3.21.495 5.96-.613 3.08-1.246 5.48-4.702 4.78-7.592-.72-2.941-5.4-3.906-9.81-2.269-2.64.978-5.49 2.504-7.54 4.506-2.43 2.374-2.82 4.448-2.66 5.309.57 3.072 4.63 5.074 6.25 6.554-.08.046-.15.092-.22.131-.82.417-3.91 2.106-4.68 3.893-.88 2.022.13 3.476.81 3.672 2.09.607 4.22-.482 5.38-2.276 1.15-1.793 1.01-4.122.48-5.185l-.02-.039.64-.391c.41-.255.82-.489 1.17-.692-.2.568-.34 1.24-.41 2.218-.09 1.148.36 2.635.95 3.222.26.254.58.26.77.26.69 0 1-.593 1.34-1.304.43-.867.8-1.872.8-1.872s-.46 2.72.82 2.72c.47 0 .93-.633 1.15-.959v.007l.03-.065c.03-.041.06-.082.08-.124v-.013a45.995 45.995 0 002.81-6.131s.08.509.31 1.344c.14.495.44 1.037.67 1.565l-.3.43v.007c-.15.209-.32.43-.49.652-.64.796-1.4 1.702-1.5 1.963-.12.307-.09.535.14.718.17.13.47.156.78.13a3.4 3.4 0 001.18-.28c.31-.118.67-.294 1.01-.555.63-.482 1.01-1.167.97-2.08-.02-.502-.17-.998-.37-1.468.06-.084.11-.169.17-.26.99-1.507 1.75-3.163 1.75-3.163s.08.508.31 1.343c.12.424.35.887.57 1.344-.93.789-1.51 1.702-1.71 2.302-.37 1.108-.08 1.611.46 1.728.25.052.6-.065.86-.183.32-.111.72-.3 1.08-.58.62-.483 1.22-1.154 1.19-2.061a3.958 3.958 0 00-.27-1.22c.79-.339 1.81-.534 3.1-.371 2.79.339 3.34 2.152 3.23 2.908-.11.757-.69 1.174-.88 1.305-.2.124-.26.169-.24.261.03.137.11.13.28.104.23-.039 1.46-.619 1.51-2.015.08-1.794-1.55-3.75-4.45-3.731zm-21.45 7.546c-.91 1.05-2.21 1.448-2.76 1.109-.59-.359-.36-1.905.77-3.02.69-.678 1.58-1.304 2.17-1.689.13-.085.33-.209.57-.359l.06-.039.14-.091c.42 1.591.02 2.987-.95 4.089zm6.72-4.768c-.32.816-.99 2.909-1.4 2.792-.35-.098-.56-1.683-.07-3.248.25-.789.79-1.728 1.1-2.094.5-.587 1.05-.782 1.19-.541.16.313-.62 2.583-.82 3.091zm5.55 2.766c-.14.071-.27.124-.32.084-.05-.026.05-.123.05-.123s.7-.777.97-1.135c.16-.209.35-.45.55-.724v.078c0 .939-.87 1.565-1.25 1.82zm4.27-1.018c-.1-.078-.09-.319.25-1.076.13-.3.43-.802.95-1.278.06.196.1.385.1.561-.01 1.174-.81 1.611-1.3 1.793z" fill="#E756AD"/></g></g><g filter="url(#filter5_dd_6103_29419)"><rect x="1291" y="344" width="56" height="56" rx="8" fill="#334155"/><g clip-path="url(#clip3_6103_29419)"><path d="M1334.65 363.3c.01.043.02.086.02.13v6.827a.507.507 0 01-.25.432l-5.69 3.299v6.539a.49.49 0 01-.25.432l-11.87 6.885a.563.563 0 01-.09.036c-.01.004-.02.011-.03.014a.482.482 0 01-.25 0c-.02-.004-.03-.011-.04-.016-.03-.01-.06-.019-.08-.034l-11.87-6.885a.44.44 0 01-.18-.183.446.446 0 01-.07-.249v-20.481c0-.045.01-.088.02-.131 0-.014.01-.027.01-.041.01-.026.02-.053.04-.077.01-.017.02-.03.03-.045.01-.02.03-.04.04-.057.02-.015.04-.025.05-.038.02-.015.04-.031.06-.043l5.93-3.442a.504.504 0 01.5 0l5.93 3.442c.02.013.04.028.06.043.01.012.03.023.05.037.01.018.03.038.04.058.01.015.02.028.03.045.02.024.03.051.04.077 0 .014.01.027.01.042.01.042.02.086.02.13v12.792l4.95-2.869v-6.539c0-.044 0-.088.01-.13.01-.015.02-.028.02-.042l.03-.077c.01-.016.03-.029.04-.044.01-.02.02-.041.04-.058.01-.015.03-.025.05-.038.02-.015.03-.031.05-.043l5.94-3.442a.477.477 0 01.49 0l5.94 3.442c.02.013.03.028.05.043.02.012.04.023.05.037.02.018.03.039.05.059l.03.044.03.077c.01.014.01.027.02.042zm-.97 6.669v-5.677l-2.08 1.205-2.87 1.664v5.677l4.95-2.869zm-5.94 10.27v-5.681l-2.82 1.624-8.06 4.634v5.734l10.88-6.311zm-22.75-19.331v19.331l10.88 6.311v-5.733l-5.68-3.241-.01-.002v-.001c-.02-.011-.03-.027-.05-.041-.02-.012-.04-.022-.05-.036v-.002c-.02-.015-.03-.035-.04-.052-.01-.017-.03-.031-.04-.049v-.002a.137.137 0 01-.02-.062l-.03-.056c0-.024-.01-.049-.01-.073 0-.019-.01-.037-.01-.056v-13.367l-2.86-1.665-2.08-1.204zm5.44-3.73l-4.94 2.868 4.94 2.868 4.94-2.869-4.94-2.867zm2.57 17.898l2.87-1.664v-12.504l-2.08 1.204-2.87 1.665v12.504l2.08-1.205zm15.24-14.514l-4.95 2.868 4.95 2.868 4.94-2.868-4.94-2.868zm-.5 6.599l-2.87-1.664-2.08-1.205v5.677l2.87 1.664 2.08 1.205v-5.677zm-11.38 12.793l7.26-4.171 3.62-2.084-4.94-2.866-5.69 3.299-5.18 3.007 4.93 2.815z" fill="#E53E3E"/></g></g><g filter="url(#filter6_dd_6103_29419)"><rect x="1072" y="330" width="56" height="56" rx="8" fill="#334155"/><g clip-path="url(#clip4_6103_29419)"><path d="M1103.7 344l-3.7 6.686-3.7-6.686H1084l16 28.952L1116 344h-12.3z" fill="#169B5B"/><path d="M1103.69 344l-3.69 6.686-3.7-6.686h-5.9l9.6 17.371 9.6-17.371h-5.91z" fill="#095F36"/></g></g><g filter="url(#filter7_dd_6103_29419)"><rect x="1161" y="114" width="56" height="56" rx="8" fill="#334155"/><g clip-path="url(#clip5_6103_29419)" fill="#8CC84B"><path d="M1188.01 128.33c.6-.367 1.38-.369 1.97 0 3.01 1.823 6.02 3.643 9.03 5.468.56.342.94 1.017.93 1.716v10.969c.01.728-.41 1.419-1 1.753-3 1.813-6 3.629-8.99 5.442-.61.374-1.41.345-2-.06-.9-.559-1.8-1.115-2.7-1.673-.18-.118-.39-.211-.52-.402.12-.166.32-.187.49-.259.37-.128.72-.334 1.06-.533.09-.064.2-.039.28.018.77.473 1.53.959 2.3 1.427.17.102.33-.033.47-.117 2.94-1.784 5.89-3.561 8.83-5.345.11-.056.17-.18.16-.308V135.57a.351.351 0 00-.19-.338c-2.99-1.805-5.97-3.613-8.96-5.418a.29.29 0 00-.35 0l-8.95 5.419a.321.321 0 00-.19.337v10.856c-.01.063 0 .126.03.18.03.054.08.098.13.125.8.485 1.59.966 2.39 1.449.45.26 1 .414 1.5.215.43-.168.74-.646.73-1.144V136.46a.263.263 0 01.28-.277c.38-.003.76-.005 1.15.001.16-.004.27.168.25.329v10.86c0 .965-.37 2.015-1.2 2.487-1.03.569-2.3.449-3.31-.098-.87-.469-1.71-1.023-2.57-1.525-.6-.333-1.01-1.027-1.01-1.754v-10.969c0-.714.39-1.401.97-1.738 3-1.815 5.99-3.631 8.99-5.446z"/><path d="M1190.62 135.928c1.31-.09 2.71-.053 3.89.638.91.529 1.41 1.64 1.43 2.725a.281.281 0 01-.3.218c-.38-.001-.76.005-1.14-.003-.16.006-.25-.153-.27-.305-.11-.52-.38-1.034-.83-1.284-.7-.376-1.51-.357-2.27-.349-.56.031-1.16.083-1.63.434-.36.266-.47.803-.34 1.236.12.311.45.411.72.503 1.58.442 3.25.398 4.79.98.64.237 1.27.698 1.49 1.417.28.963.16 2.114-.48 2.887-.52.636-1.27.983-2.02 1.171-1.01.239-2.04.245-3.06.139-.96-.117-1.95-.386-2.69-1.085-.63-.588-.94-1.503-.91-2.387.01-.15.15-.254.28-.242.38-.003.77-.004 1.15.001.15-.012.26.13.27.284.07.495.25 1.014.65 1.308.77.537 1.75.5 2.64.515.73-.035 1.56-.046 2.16-.568.32-.297.41-.796.32-1.224-.09-.362-.44-.531-.74-.641-1.56-.528-3.25-.336-4.79-.933-.62-.237-1.23-.685-1.47-1.375-.33-.975-.18-2.181.53-2.928.69-.743 1.68-1.029 2.62-1.132z"/></g></g><g filter="url(#filter8_dd_6103_29419)"><rect x="188" y="121" width="56" height="56" rx="8" fill="#334155"/><g clip-path="url(#clip6_6103_29419)"><path fill-rule="evenodd" clip-rule="evenodd" d="M208.985 139c-1.37 0-2.383 1.196-2.337 2.494.043 1.247-.013 2.861-.421 4.178-.408 1.32-1.099 2.157-2.227 2.264v1.212c1.128.108 1.819.944 2.227 2.265.408 1.316.464 2.931.421 4.177-.046 1.298.967 2.494 2.337 2.494h14.032c1.369 0 2.382-1.196 2.337-2.494-.043-1.246.013-2.861.42-4.177.409-1.321 1.098-2.157 2.226-2.265v-1.212c-1.128-.107-1.817-.944-2.226-2.264-.407-1.317-.463-2.931-.42-4.178.045-1.297-.968-2.494-2.337-2.494h-14.032zm11.286 11.748c0 1.786-1.335 2.87-3.55 2.87h-3.772a.406.406 0 01-.407-.406v-9.339a.407.407 0 01.407-.406h3.75c1.847 0 3.06.998 3.06 2.532 0 1.077-.816 2.04-1.855 2.209v.056c1.415.155 2.367 1.133 2.367 2.484zm-3.962-5.994h-2.15v3.032h1.811c1.4 0 2.172-.563 2.172-1.569 0-.943-.664-1.463-1.833-1.463zm-2.15 4.235v3.341h2.229c1.458 0 2.23-.584 2.23-1.681 0-1.098-.793-1.66-2.323-1.66h-2.136z" fill="#7954FF"/></g></g><g filter="url(#filter9_dd_6103_29419)"><rect x="291" y="15" width="56" height="56" rx="8" fill="#334155"/><path d="M307 30h24v25.333h-24V30z" fill="#F59E0B"/><path d="M313.311 51.17l1.836-1.173c.355.663.677 1.224 1.45 1.224.741 0 1.208-.306 1.208-1.496v-8.094h2.256v8.128c0 2.465-1.369 3.588-3.367 3.588-1.805 0-2.852-.986-3.383-2.177zm7.975-.255l1.836-1.122c.484.833 1.112 1.446 2.224 1.446.934 0 1.53-.494 1.53-1.174 0-.816-.612-1.105-1.643-1.581l-.564-.256c-1.627-.73-2.707-1.649-2.707-3.587 0-1.786 1.289-3.147 3.303-3.147 1.434 0 2.465.528 3.206 1.905l-1.756 1.19c-.387-.73-.806-1.02-1.45-1.02-.661 0-1.079.442-1.079 1.02 0 .715.418 1.004 1.385 1.446l.564.255c1.917.867 2.996 1.752 2.996 3.741 0 2.143-1.595 3.316-3.737 3.316-2.094 0-3.448-1.054-4.108-2.432" fill="#1E293B"/></g><g filter="url(#filter10_dd_6103_29419)"><rect x="69" y="33" width="56" height="56" rx="8" fill="#334155"/><g clip-path="url(#clip7_6103_29419)"><path d="M85.009 52.24l11.794-4.175 12.112 4.1-1.961 15.503-10.151 5.585-9.992-5.51L85.01 52.24z" fill="#E53E3E"/><path d="M108.915 52.165l-12.112-4.1v25.188l10.15-5.576 1.962-15.512z" fill="#E53E3E"/><path d="M96.822 51.006l-7.35 16.245 2.746-.047 1.476-3.664h6.592l1.616 3.71 2.624.047-7.704-16.291zm.019 5.205l2.484 5.158h-4.67l2.186-5.158z" fill="#fff"/></g></g><g filter="url(#filter11_dd_6103_29419)"><rect x="204" y="242" width="56" height="56" rx="8" fill="#334155"/><path d="M244 269.911c0 1.637-1.991 3.19-5.044 4.152.705 3.206.392 5.756-.988 6.572-.318.192-.69.283-1.096.283v-1.124c.225 0 .406-.046.558-.131.665-.393.954-1.89.729-3.816a15.914 15.914 0 00-.25-1.481 23.03 23.03 0 01-3.106.549 24.403 24.403 0 01-2.035 2.52c1.595 1.527 3.092 2.364 4.109 2.364v1.124c-1.345 0-3.106-.988-4.887-2.702-1.78 1.704-3.542 2.681-4.887 2.681v-1.123c1.013 0 2.515-.832 4.109-2.349a23.872 23.872 0 01-2.02-2.515 22.225 22.225 0 01-3.111-.554c-.113.504-.196.993-.255 1.461-.23 1.925.054 3.422.715 3.82.146.091.337.131.562.131v1.124c-.411 0-.783-.09-1.105-.282-1.375-.816-1.683-3.361-.974-6.557-3.043-.967-5.024-2.515-5.024-4.147 0-1.638 1.991-3.191 5.044-4.153-.705-3.206-.392-5.756.988-6.572.318-.192.69-.282 1.1-.282 1.346 0 3.107.987 4.888 2.701 1.78-1.704 3.541-2.681 4.887-2.681.411 0 .782.09 1.105.282 1.375.816 1.683 3.362.974 6.557 3.033.962 5.014 2.515 5.014 4.148zm-6.369 3.361c-.181-.65-.406-1.32-.661-1.991a27.176 27.176 0 01-1.345 2.389 21.636 21.636 0 002.006-.398zm-2.241-5.367a26.725 26.725 0 00-1.179-1.926 24.898 24.898 0 00-4.412-.005c-.406.6-.803 1.24-1.184 1.916-.372.66-.71 1.33-1.018 2.005.304.676.646 1.351 1.013 2.011.381.681.773 1.326 1.179 1.926a24.898 24.898 0 004.412.005c.406-.6.803-1.24 1.184-1.916.372-.66.71-1.33 1.018-2.005a28.23 28.23 0 00-1.013-2.011zm1.58.655c.264-.675.489-1.351.675-2.006a21.559 21.559 0 00-2.015-.403 27.752 27.752 0 011.34 2.409zm-4.96-5.378c-.455.484-.91 1.023-1.36 1.613.44-.02.89-.035 1.345-.035.46 0 .915.01 1.36.035-.44-.59-.895-1.129-1.345-1.613zm-3.64 2.969c-.695.106-1.365.237-2.006.398.181.65.406 1.32.661 1.991.2-.403.411-.807.641-1.21.23-.403.464-.796.704-1.179zm3.615 10.488c.455-.484.91-1.023 1.36-1.613-.44.02-.89.035-1.345.035-.46 0-.915-.01-1.36-.035.44.59.895 1.129 1.345 1.613zm-3.62-2.969a28.828 28.828 0 01-1.34-2.404 22.218 22.218 0 00-.675 2.006c.641.156 1.316.292 2.015.398zm-4.427-6.31c-1.732.761-2.852 1.759-2.852 2.551 0 .791 1.12 1.794 2.852 2.55.421.186.881.352 1.355.509.279-.988.646-2.016 1.101-3.07a24.32 24.32 0 01-1.086-3.054c-.485.157-.944.328-1.37.514zm2.632-7.202c-.665.394-.954 1.89-.729 3.816.054.473.142.972.25 1.481a23.03 23.03 0 013.106-.549 24.403 24.403 0 012.035-2.52c-1.595-1.527-3.092-2.364-4.109-2.364a1.15 1.15 0 00-.553.136zm11.604 3.841c.23-1.925-.054-3.422-.715-3.82-.146-.091-.337-.131-.562-.131-1.013 0-2.515.831-4.109 2.348a23.872 23.872 0 012.02 2.515c1.106.121 2.152.307 3.111.554.113-.509.201-.997.255-1.466zm1.883 3.361c-.421-.186-.88-.352-1.355-.509a24.736 24.736 0 01-1.101 3.07 24.32 24.32 0 011.086 3.054c.485-.156.944-.328 1.375-.514 1.732-.761 2.852-1.759 2.852-2.55-.005-.792-1.125-1.795-2.857-2.551z" fill="#1ECFFF"/><path d="M231.995 267.607c1.235 0 2.236 1.032 2.236 2.304 0 1.272-1.001 2.303-2.236 2.303-1.234 0-2.235-1.031-2.235-2.303s1.001-2.304 2.235-2.304z" fill="#1ECFFF"/></g><g filter="url(#filter12_dd_6103_29419)"><rect x="91" y="333" width="56" height="56" rx="8" fill="#334155"/><path d="M105.864 369.185h9.753s-1.864-8.506 4.309-11.95c1.346-.655 5.63-3.099 12.642 2.086.222-.185.432-.333.432-.333s-6.42-6.408-13.568-5.692c-3.592.321-8.012 3.593-10.605 7.914-2.592 4.321-2.963 7.975-2.963 7.975z" fill="#E53E3E"/><path d="M105.864 369.185h9.753s-1.864-8.506 4.309-11.95c1.346-.655 5.63-3.099 12.642 2.086.222-.185.432-.333.432-.333s-6.42-6.408-13.568-5.692c-3.592.321-8.012 3.593-10.605 7.914-2.592 4.321-2.963 7.975-2.963 7.975z" fill="#E53E3E"/><path d="M105.864 369.185h9.753s-1.864-8.506 4.309-11.95c1.346-.655 5.63-3.099 12.642 2.086.222-.185.432-.333.432-.333s-6.42-6.408-13.568-5.692c-3.605.321-8.025 3.593-10.617 7.914-2.593 4.321-2.951 7.975-2.951 7.975zm20.321-15.197l.05-.828c-.112-.061-.42-.209-1.198-.432l-.049.815c.407.136.802.284 1.197.445z" fill="#E53E3E"/><path d="M125.012 356.605l-.049.778c.407.012.815.061 1.222.148l.049-.766a8.833 8.833 0 00-1.222-.16zm-4.568-3.852h.124l-.247-.753c-.383 0-.778.025-1.185.074l.234.728c.358-.037.716-.049 1.074-.049zm.593 4.543l.284.852a7.775 7.775 0 011.074-.432l-.272-.815a9.079 9.079 0 00-1.086.395zm-5.605-3.247l-.555-.851c-.309.16-.63.333-.963.53l.567.865c.321-.198.63-.383.951-.544zm2.531 5.556l.593.889a6.73 6.73 0 01.728-.877l-.556-.839a6.78 6.78 0 00-.765.827zm-1.79 3.975l1 .79c.049-.481.136-.963.259-1.444l-.889-.704c-.16.457-.271.914-.37 1.358zm-5.408-5.864l-.876-.765c-.321.308-.63.617-.914.926l.951.814c.259-.333.543-.666.839-.975zm-3.728 5.519l-1.42-.519a32.244 32.244 0 00-.617 1.481l1.42.519c.16-.42.419-1.025.617-1.481zm8.951 3.481c.024.654.086 1.185.148 1.556l1.481.53a16.266 16.266 0 01-.296-1.605l-1.333-.481z" fill="#E53E3E"/></g><g filter="url(#filter13_dd_6103_29419)"><rect x="30" y="193" width="56" height="56" rx="8" fill="#334155"/><g clip-path="url(#clip8_6103_29419)"><path d="M57.9 209.008c-6.077 0-5.698 2.646-5.698 2.646l.007 2.742h5.8v.823h-8.103s-3.89-.443-3.89 5.714 3.395 5.938 3.395 5.938h2.026v-2.857s-.11-3.408 3.34-3.408h5.752s3.232.053 3.232-3.136v-5.271s.49-3.191-5.86-3.191zm-3.198 1.844a1.052 1.052 0 01.738.306 1.056 1.056 0 01.227 1.142 1.035 1.035 0 01-.565.567 1.034 1.034 0 01-1.138-.227 1.035 1.035 0 01-.305-.741 1.056 1.056 0 01.305-.741 1.053 1.053 0 01.738-.306z" fill="url(#paint0_linear_6103_29419)"/><path d="M58.07 232.918c6.077 0 5.698-2.646 5.698-2.646l-.007-2.742h-5.8v-.823h8.103s3.89.443 3.89-5.714-3.395-5.938-3.395-5.938h-2.026v2.857s.11 3.408-3.34 3.408H55.44s-3.232-.053-3.232 3.136v5.271s-.49 3.191 5.86 3.191zm3.197-1.844a1.033 1.033 0 01-.738-.306 1.044 1.044 0 01-.305-.741 1.048 1.048 0 011.044-1.048 1.034 1.034 0 01.737.307 1.044 1.044 0 01.306.741 1.052 1.052 0 01-.644.968 1.052 1.052 0 01-.4.079z" fill="url(#paint1_linear_6103_29419)"/></g></g><g filter="url(#filter14_dd_6103_29419)"><rect x="291" y="361" width="56" height="56" rx="8" fill="#334155"/><g clip-path="url(#clip9_6103_29419)"><path fill-rule="evenodd" clip-rule="evenodd" d="M321.481 376.777l6.776 3.912a2.943 2.943 0 014.681.55 2.943 2.943 0 01-1.86 4.326v7.828c.272.066.533.17.775.31a2.93 2.93 0 011.077 4.014 2.942 2.942 0 01-4.741.487l-6.735 3.889a2.939 2.939 0 01-2.789 3.863 2.935 2.935 0 01-2.818-3.768l-6.775-3.912a2.94 2.94 0 11-2.82-4.883v-7.828a2.942 2.942 0 01-1.86-4.326 2.942 2.942 0 014.678-.553l6.778-3.914a2.935 2.935 0 012.817-3.772 2.934 2.934 0 012.937 2.937c0 .292-.042.574-.121.84zm-.706 1.205l6.793 3.922a2.916 2.916 0 00.279 2.272 2.922 2.922 0 001.834 1.382v7.838a2.081 2.081 0 00-.113.03l-8.872-15.365.079-.079zm-4.139.08l-8.871 15.366a1.659 1.659 0 00-.116-.031v-7.839a2.924 2.924 0 002.205-2.492 2.924 2.924 0 00-.092-1.166l6.79-3.921.084.083zm2.85.696l8.869 15.362a2.928 2.928 0 00-.826 1.434h-17.727a2.93 2.93 0 00-.826-1.43l8.871-15.365a2.939 2.939 0 001.639-.001zm1.351 22.282l6.749-3.896a2.634 2.634 0 01-.054-.193h-17.734a2.395 2.395 0 01-.03.114l6.781 3.915a2.925 2.925 0 012.116-.898 2.927 2.927 0 012.172.958z" fill="#E535AB"/></g></g><defs><filter id="filter0_dd_6103_29419" x="1290" y="149" width="116" height="116" filterUnits="userSpaceOnUse" color-interpolation-filters="sRGB"><feFlood flood-opacity="0" result="BackgroundImageFix"/><feColorMatrix in="SourceAlpha" values="0 0 0 0 0 0 0 0 0 0 0 0 0 0 0 0 0 0 127 0" result="hardAlpha"/><feOffset dy="15"/><feGaussianBlur stdDeviation="15"/><feColorMatrix values="0 0 0 0 0.0117647 0 0 0 0 0 0 0 0 0 0.278431 0 0 0 0.12 0"/><feBlend in2="BackgroundImageFix" result="effect1_dropShadow_6103_29419"/><feColorMatrix in="SourceAlpha" values="0 0 0 0 0 0 0 0 0 0 0 0 0 0 0 0 0 0 127 0" result="hardAlpha"/><feOffset dy="2"/><feGaussianBlur stdDeviation="2.5"/><feColorMatrix values="0 0 0 0 0.0823529 0 0 0 0 0.0823529 0 0 0 0 0.0823529 0 0 0 0.08 0"/><feBlend in2="effect1_dropShadow_6103_29419" result="effect2_dropShadow_6103_29419"/><feBlend in="SourceGraphic" in2="effect2_dropShadow_6103_29419" result="shape"/></filter><filter id="filter1_dd_6103_29419" x="1226" y="16" width="116" height="116" filterUnits="userSpaceOnUse" color-interpolation-filters="sRGB"><feFlood flood-opacity="0" result="BackgroundImageFix"/><feColorMatrix in="SourceAlpha" values="0 0 0 0 0 0 0 0 0 0 0 0 0 0 0 0 0 0 127 0" result="hardAlpha"/><feOffset dy="15"/><feGaussianBlur stdDeviation="15"/><feColorMatrix values="0 0 0 0 0.0117647 0 0 0 0 0 0 0 0 0 0.278431 0 0 0 0.12 0"/><feBlend in2="BackgroundImageFix" result="effect1_dropShadow_6103_29419"/><feColorMatrix in="SourceAlpha" values="0 0 0 0 0 0 0 0 0 0 0 0 0 0 0 0 0 0 127 0" result="hardAlpha"/><feOffset dy="2"/><feGaussianBlur stdDeviation="2.5"/><feColorMatrix values="0 0 0 0 0.0823529 0 0 0 0 0.0823529 0 0 0 0 0.0823529 0 0 0 0.08 0"/><feBlend in2="effect1_dropShadow_6103_29419" result="effect2_dropShadow_6103_29419"/><feBlend in="SourceGraphic" in2="effect2_dropShadow_6103_29419" result="shape"/></filter><filter id="filter2_dd_6103_29419" x="1020" y="0" width="116" height="116" filterUnits="userSpaceOnUse" color-interpolation-filters="sRGB"><feFlood flood-opacity="0" result="BackgroundImageFix"/><feColorMatrix in="SourceAlpha" values="0 0 0 0 0 0 0 0 0 0 0 0 0 0 0 0 0 0 127 0" result="hardAlpha"/><feOffset dy="15"/><feGaussianBlur stdDeviation="15"/><feColorMatrix values="0 0 0 0 0.0117647 0 0 0 0 0 0 0 0 0 0.278431 0 0 0 0.12 0"/><feBlend in2="BackgroundImageFix" result="effect1_dropShadow_6103_29419"/><feColorMatrix in="SourceAlpha" values="0 0 0 0 0 0 0 0 0 0 0 0 0 0 0 0 0 0 127 0" result="hardAlpha"/><feOffset dy="2"/><feGaussianBlur stdDeviation="2.5"/><feColorMatrix values="0 0 0 0 0.0823529 0 0 0 0 0.0823529 0 0 0 0 0.0823529 0 0 0 0.08 0"/><feBlend in2="effect1_dropShadow_6103_29419" result="effect2_dropShadow_6103_29419"/><feBlend in="SourceGraphic" in2="effect2_dropShadow_6103_29419" result="shape"/></filter><filter id="filter3_d_6103_29419" x="1060" y="26" width="36" height="36" filterUnits="userSpaceOnUse" color-interpolation-filters="sRGB"><feFlood flood-opacity="0" result="BackgroundImageFix"/><feColorMatrix in="SourceAlpha" values="0 0 0 0 0 0 0 0 0 0 0 0 0 0 0 0 0 0 127 0" result="hardAlpha"/><feOffset dy="1"/><feGaussianBlur stdDeviation="1"/><feColorMatrix values="0 0 0 0 0.0117647 0 0 0 0 0 0 0 0 0 0.278431 0 0 0 0.06 0"/><feBlend in2="BackgroundImageFix" result="effect1_dropShadow_6103_29419"/><feBlend in="SourceGraphic" in2="effect1_dropShadow_6103_29419" result="shape"/></filter><filter id="filter4_dd_6103_29419" x="1147" y="217" width="116" height="116" filterUnits="userSpaceOnUse" color-interpolation-filters="sRGB"><feFlood flood-opacity="0" result="BackgroundImageFix"/><feColorMatrix in="SourceAlpha" values="0 0 0 0 0 0 0 0 0 0 0 0 0 0 0 0 0 0 127 0" result="hardAlpha"/><feOffset dy="15"/><feGaussianBlur stdDeviation="15"/><feColorMatrix values="0 0 0 0 0.0117647 0 0 0 0 0 0 0 0 0 0.278431 0 0 0 0.12 0"/><feBlend in2="BackgroundImageFix" result="effect1_dropShadow_6103_29419"/><feColorMatrix in="SourceAlpha" values="0 0 0 0 0 0 0 0 0 0 0 0 0 0 0 0 0 0 127 0" result="hardAlpha"/><feOffset dy="2"/><feGaussianBlur stdDeviation="2.5"/><feColorMatrix values="0 0 0 0 0.0823529 0 0 0 0 0.0823529 0 0 0 0 0.0823529 0 0 0 0.08 0"/><feBlend in2="effect1_dropShadow_6103_29419" result="effect2_dropShadow_6103_29419"/><feBlend in="SourceGraphic" in2="effect2_dropShadow_6103_29419" result="shape"/></filter><filter id="filter5_dd_6103_29419" x="1261" y="329" width="116" height="116" filterUnits="userSpaceOnUse" color-interpolation-filters="sRGB"><feFlood flood-opacity="0" result="BackgroundImageFix"/><feColorMatrix in="SourceAlpha" values="0 0 0 0 0 0 0 0 0 0 0 0 0 0 0 0 0 0 127 0" result="hardAlpha"/><feOffset dy="15"/><feGaussianBlur stdDeviation="15"/><feColorMatrix values="0 0 0 0 0.0117647 0 0 0 0 0 0 0 0 0 0.278431 0 0 0 0.12 0"/><feBlend in2="BackgroundImageFix" result="effect1_dropShadow_6103_29419"/><feColorMatrix in="SourceAlpha" values="0 0 0 0 0 0 0 0 0 0 0 0 0 0 0 0 0 0 127 0" result="hardAlpha"/><feOffset dy="2"/><feGaussianBlur stdDeviation="2.5"/><feColorMatrix values="0 0 0 0 0.0823529 0 0 0 0 0.0823529 0 0 0 0 0.0823529 0 0 0 0.08 0"/><feBlend in2="effect1_dropShadow_6103_29419" result="effect2_dropShadow_6103_29419"/><feBlend in="SourceGraphic" in2="effect2_dropShadow_6103_29419" result="shape"/></filter><filter id="filter6_dd_6103_29419" x="1042" y="315" width="116" height="116" filterUnits="userSpaceOnUse" color-interpolation-filters="sRGB"><feFlood flood-opacity="0" result="BackgroundImageFix"/><feColorMatrix in="SourceAlpha" values="0 0 0 0 0 0 0 0 0 0 0 0 0 0 0 0 0 0 127 0" result="hardAlpha"/><feOffset dy="15"/><feGaussianBlur stdDeviation="15"/><feColorMatrix values="0 0 0 0 0.0117647 0 0 0 0 0 0 0 0 0 0.278431 0 0 0 0.12 0"/><feBlend in2="BackgroundImageFix" result="effect1_dropShadow_6103_29419"/><feColorMatrix in="SourceAlpha" values="0 0 0 0 0 0 0 0 0 0 0 0 0 0 0 0 0 0 127 0" result="hardAlpha"/><feOffset dy="2"/><feGaussianBlur stdDeviation="2.5"/><feColorMatrix values="0 0 0 0 0.0823529 0 0 0 0 0.0823529 0 0 0 0 0.0823529 0 0 0 0.08 0"/><feBlend in2="effect1_dropShadow_6103_29419" result="effect2_dropShadow_6103_29419"/><feBlend in="SourceGraphic" in2="effect2_dropShadow_6103_29419" result="shape"/></filter><filter id="filter7_dd_6103_29419" x="1131" y="99" width="116" height="116" filterUnits="userSpaceOnUse" color-interpolation-filters="sRGB"><feFlood flood-opacity="0" result="BackgroundImageFix"/><feColorMatrix in="SourceAlpha" values="0 0 0 0 0 0 0 0 0 0 0 0 0 0 0 0 0 0 127 0" result="hardAlpha"/><feOffset dy="15"/><feGaussianBlur stdDeviation="15"/><feColorMatrix values="0 0 0 0 0.0117647 0 0 0 0 0 0 0 0 0 0.278431 0 0 0 0.12 0"/><feBlend in2="BackgroundImageFix" result="effect1_dropShadow_6103_29419"/><feColorMatrix in="SourceAlpha" values="0 0 0 0 0 0 0 0 0 0 0 0 0 0 0 0 0 0 127 0" result="hardAlpha"/><feOffset dy="2"/><feGaussianBlur stdDeviation="2.5"/><feColorMatrix values="0 0 0 0 0.0823529 0 0 0 0 0.0823529 0 0 0 0 0.0823529 0 0 0 0.08 0"/><feBlend in2="effect1_dropShadow_6103_29419" result="effect2_dropShadow_6103_29419"/><feBlend in="SourceGraphic" in2="effect2_dropShadow_6103_29419" result="shape"/></filter><filter id="filter8_dd_6103_29419" x="158" y="106" width="116" height="116" filterUnits="userSpaceOnUse" color-interpolation-filters="sRGB"><feFlood flood-opacity="0" result="BackgroundImageFix"/><feColorMatrix in="SourceAlpha" values="0 0 0 0 0 0 0 0 0 0 0 0 0 0 0 0 0 0 127 0" result="hardAlpha"/><feOffset dy="15"/><feGaussianBlur stdDeviation="15"/><feColorMatrix values="0 0 0 0 0.0117647 0 0 0 0 0 0 0 0 0 0.278431 0 0 0 0.12 0"/><feBlend in2="BackgroundImageFix" result="effect1_dropShadow_6103_29419"/><feColorMatrix in="SourceAlpha" values="0 0 0 0 0 0 0 0 0 0 0 0 0 0 0 0 0 0 127 0" result="hardAlpha"/><feOffset dy="2"/><feGaussianBlur stdDeviation="2.5"/><feColorMatrix values="0 0 0 0 0.0823529 0 0 0 0 0.0823529 0 0 0 0 0.0823529 0 0 0 0.08 0"/><feBlend in2="effect1_dropShadow_6103_29419" result="effect2_dropShadow_6103_29419"/><feBlend in="SourceGraphic" in2="effect2_dropShadow_6103_29419" result="shape"/></filter><filter id="filter9_dd_6103_29419" x="261" y="0" width="116" height="116" filterUnits="userSpaceOnUse" color-interpolation-filters="sRGB"><feFlood flood-opacity="0" result="BackgroundImageFix"/><feColorMatrix in="SourceAlpha" values="0 0 0 0 0 0 0 0 0 0 0 0 0 0 0 0 0 0 127 0" result="hardAlpha"/><feOffset dy="15"/><feGaussianBlur stdDeviation="15"/><feColorMatrix values="0 0 0 0 0.0117647 0 0 0 0 0 0 0 0 0 0.278431 0 0 0 0.12 0"/><feBlend in2="BackgroundImageFix" result="effect1_dropShadow_6103_29419"/><feColorMatrix in="SourceAlpha" values="0 0 0 0 0 0 0 0 0 0 0 0 0 0 0 0 0 0 127 0" result="hardAlpha"/><feOffset dy="2"/><feGaussianBlur stdDeviation="2.5"/><feColorMatrix values="0 0 0 0 0.0823529 0 0 0 0 0.0823529 0 0 0 0 0.0823529 0 0 0 0.08 0"/><feBlend in2="effect1_dropShadow_6103_29419" result="effect2_dropShadow_6103_29419"/><feBlend in="SourceGraphic" in2="effect2_dropShadow_6103_29419" result="shape"/></filter><filter id="filter10_dd_6103_29419" x="39" y="18" width="116" height="116" filterUnits="userSpaceOnUse" color-interpolation-filters="sRGB"><feFlood flood-opacity="0" result="BackgroundImageFix"/><feColorMatrix in="SourceAlpha" values="0 0 0 0 0 0 0 0 0 0 0 0 0 0 0 0 0 0 127 0" result="hardAlpha"/><feOffset dy="15"/><feGaussianBlur stdDeviation="15"/><feColorMatrix values="0 0 0 0 0.0117647 0 0 0 0 0 0 0 0 0 0.278431 0 0 0 0.12 0"/><feBlend in2="BackgroundImageFix" result="effect1_dropShadow_6103_29419"/><feColorMatrix in="SourceAlpha" values="0 0 0 0 0 0 0 0 0 0 0 0 0 0 0 0 0 0 127 0" result="hardAlpha"/><feOffset dy="2"/><feGaussianBlur stdDeviation="2.5"/><feColorMatrix values="0 0 0 0 0.0823529 0 0 0 0 0.0823529 0 0 0 0 0.0823529 0 0 0 0.08 0"/><feBlend in2="effect1_dropShadow_6103_29419" result="effect2_dropShadow_6103_29419"/><feBlend in="SourceGraphic" in2="effect2_dropShadow_6103_29419" result="shape"/></filter><filter id="filter11_dd_6103_29419" x="174" y="227" width="116" height="116" filterUnits="userSpaceOnUse" color-interpolation-filters="sRGB"><feFlood flood-opacity="0" result="BackgroundImageFix"/><feColorMatrix in="SourceAlpha" values="0 0 0 0 0 0 0 0 0 0 0 0 0 0 0 0 0 0 127 0" result="hardAlpha"/><feOffset dy="15"/><feGaussianBlur stdDeviation="15"/><feColorMatrix values="0 0 0 0 0.0117647 0 0 0 0 0 0 0 0 0 0.278431 0 0 0 0.12 0"/><feBlend in2="BackgroundImageFix" result="effect1_dropShadow_6103_29419"/><feColorMatrix in="SourceAlpha" values="0 0 0 0 0 0 0 0 0 0 0 0 0 0 0 0 0 0 127 0" result="hardAlpha"/><feOffset dy="2"/><feGaussianBlur stdDeviation="2.5"/><feColorMatrix values="0 0 0 0 0.0823529 0 0 0 0 0.0823529 0 0 0 0 0.0823529 0 0 0 0.08 0"/><feBlend in2="effect1_dropShadow_6103_29419" result="effect2_dropShadow_6103_29419"/><feBlend in="SourceGraphic" in2="effect2_dropShadow_6103_29419" result="shape"/></filter><filter id="filter12_dd_6103_29419" x="61" y="318" width="116" height="116" filterUnits="userSpaceOnUse" color-interpolation-filters="sRGB"><feFlood flood-opacity="0" result="BackgroundImageFix"/><feColorMatrix in="SourceAlpha" values="0 0 0 0 0 0 0 0 0 0 0 0 0 0 0 0 0 0 127 0" result="hardAlpha"/><feOffset dy="15"/><feGaussianBlur stdDeviation="15"/><feColorMatrix values="0 0 0 0 0.0117647 0 0 0 0 0 0 0 0 0 0.278431 0 0 0 0.12 0"/><feBlend in2="BackgroundImageFix" result="effect1_dropShadow_6103_29419"/><feColorMatrix in="SourceAlpha" values="0 0 0 0 0 0 0 0 0 0 0 0 0 0 0 0 0 0 127 0" result="hardAlpha"/><feOffset dy="2"/><feGaussianBlur stdDeviation="2.5"/><feColorMatrix values="0 0 0 0 0.0823529 0 0 0 0 0.0823529 0 0 0 0 0.0823529 0 0 0 0.08 0"/><feBlend in2="effect1_dropShadow_6103_29419" result="effect2_dropShadow_6103_29419"/><feBlend in="SourceGraphic" in2="effect2_dropShadow_6103_29419" result="shape"/></filter><filter id="filter13_dd_6103_29419" x="0" y="178" width="116" height="116" filterUnits="userSpaceOnUse" color-interpolation-filters="sRGB"><feFlood flood-opacity="0" result="BackgroundImageFix"/><feColorMatrix in="SourceAlpha" values="0 0 0 0 0 0 0 0 0 0 0 0 0 0 0 0 0 0 127 0" result="hardAlpha"/><feOffset dy="15"/><feGaussianBlur stdDeviation="15"/><feColorMatrix values="0 0 0 0 0.0117647 0 0 0 0 0 0 0 0 0 0.278431 0 0 0 0.12 0"/><feBlend in2="BackgroundImageFix" result="effect1_dropShadow_6103_29419"/><feColorMatrix in="SourceAlpha" values="0 0 0 0 0 0 0 0 0 0 0 0 0 0 0 0 0 0 127 0" result="hardAlpha"/><feOffset dy="2"/><feGaussianBlur stdDeviation="2.5"/><feColorMatrix values="0 0 0 0 0.0823529 0 0 0 0 0.0823529 0 0 0 0 0.0823529 0 0 0 0.08 0"/><feBlend in2="effect1_dropShadow_6103_29419" result="effect2_dropShadow_6103_29419"/><feBlend in="SourceGraphic" in2="effect2_dropShadow_6103_29419" result="shape"/></filter><filter id="filter14_dd_6103_29419" x="261" y="346" width="116" height="116" filterUnits="userSpaceOnUse" color-interpolation-filters="sRGB"><feFlood flood-opacity="0" result="BackgroundImageFix"/><feColorMatrix in="SourceAlpha" values="0 0 0 0 0 0 0 0 0 0 0 0 0 0 0 0 0 0 127 0" result="hardAlpha"/><feOffset dy="15"/><feGaussianBlur stdDeviation="15"/><feColorMatrix values="0 0 0 0 0.0117647 0 0 0 0 0 0 0 0 0 0.278431 0 0 0 0.12 0"/><feBlend in2="BackgroundImageFix" result="effect1_dropShadow_6103_29419"/><feColorMatrix in="SourceAlpha" values="0 0 0 0 0 0 0 0 0 0 0 0 0 0 0 0 0 0 127 0" result="hardAlpha"/><feOffset dy="2"/><feGaussianBlur stdDeviation="2.5"/><feColorMatrix values="0 0 0 0 0.0823529 0 0 0 0 0.0823529 0 0 0 0 0.0823529 0 0 0 0.08 0"/><feBlend in2="effect1_dropShadow_6103_29419" result="effect2_dropShadow_6103_29419"/><feBlend in="SourceGraphic" in2="effect2_dropShadow_6103_29419" result="shape"/></filter><clipPath id="clip0_6103_29419"><path fill="#fff" d="M1340 174h14.222v32H1340z"/></clipPath><clipPath id="clip1_6103_29419"><path fill="#fff" transform="translate(1062 27)" d="M0 0h32v32H0z"/></clipPath><clipPath id="clip2_6103_29419"><path fill="#fff" transform="translate(1189 247)" d="M0 0h32v25.044H0z"/></clipPath><clipPath id="clip3_6103_29419"><path fill="#fff" transform="translate(1304 356)" d="M0 0h30.72v32H0z"/></clipPath><clipPath id="clip4_6103_29419"><path fill="#fff" transform="translate(1084 344)" d="M0 0h32v28.952H0z"/></clipPath><clipPath id="clip5_6103_29419"><path fill="#fff" transform="translate(1178 128)" d="M0 0h22v26H0z"/></clipPath><clipPath id="clip6_6103_29419"><path fill="#fff" transform="translate(204 139)" d="M0 0h24v19.084H0z"/></clipPath><clipPath id="clip7_6103_29419"><path fill="#fff" transform="translate(85 48)" d="M0 0h24v25.333H0z"/></clipPath><clipPath id="clip8_6103_29419"><path fill="#fff" transform="translate(46 209)" d="M0 0h24v24H0z"/></clipPath><clipPath id="clip9_6103_29419"><path fill="#fff" transform="translate(304 373)" d="M0 0h29.33v33H0z"/></clipPath><linearGradient id="paint0_linear_6103_29419" x1="48.317" y1="211.159" x2="60.228" y2="222.904" gradientUnits="userSpaceOnUse"><stop stop-color="#387EB8"/><stop offset="1" stop-color="#366994"/></linearGradient><linearGradient id="paint1_linear_6103_29419" x1="55.596" y1="218.73" x2="68.385" y2="230.771" gradientUnits="userSpaceOnUse"><stop stop-color="#FFE052"/><stop offset="1" stop-color="#FFC331"/></linearGradient></defs><script xmlns="" id="bw-fido2-page-script"/></svg>